<svg xmlns="http://www.w3.org/2000/svg" fill="none" viewBox="0 0 24 24"><path fill="color(display-p3 .0824 .0941 .1137)" d="M9.447 15.398a.75.75 0 0 0-.894 1.205A5.766 5.766 0 0 0 12 17.75a5.766 5.766 0 0 0 3.447-1.147.75.75 0 0 0-.894-1.206A4.266 4.266 0 0 1 12 16.25a4.266 4.266 0 0 1-2.553-.852ZM16 10.5c0 .828-.448 1.5-1 1.5s-1-.672-1-1.5.448-1.5 1-1.5 1 .672 1 1.5ZM9 12c.552 0 1-.672 1-1.5S9.552 9 9 9s-1 .672-1 1.5.448 1.5 1 1.5Z"/><path fill="color(display-p3 .0824 .0941 .1137)" d="M12 1.25C6.063 1.25 1.25 6.063 1.25 12S6.063 22.75 12 22.75 22.75 17.937 22.75 12 17.937 1.25 12 1.25ZM2.75 12a9.25 9.25 0 1 1 18.5 0 9.25 9.25 0 0 1-18.5 0Z"/></svg>