<svg xmlns="http://www.w3.org/2000/svg" fill="none" viewBox="0 0 24 24"><path fill="color(display-p3 .0824 .0941 .1137)" d="M6.948 2.25h10.104c.899 0 1.648 0 2.242.08.628.084 1.195.27 1.65.725.456.456.642 1.023.726 1.65.08.595.08 1.345.08 2.243v10.104c0 .899 0 1.648-.08 2.242-.084.628-.27 1.195-.726 1.65-.455.456-1.022.642-1.65.726-.594.08-1.343.08-2.242.08H6.948c-.898 0-1.648 0-2.242-.08-.628-.084-1.195-.27-1.65-.726-.456-.455-.642-1.022-.726-1.65-.08-.594-.08-1.343-.08-2.242V6.948c0-.898 0-1.648.08-2.242.084-.628.27-1.195.725-1.65.456-.456 1.023-.642 1.65-.726.595-.08 1.345-.08 2.243-.08ZM4.905 3.817c-.461.062-.659.169-.789.3-.13.13-.237.327-.3.788C3.753 5.388 3.75 6.036 3.75 7v8.889l1.591-1.59.037-.038c.635-.635 1.165-1.165 1.642-1.529.504-.384 1.036-.654 1.68-.654.644 0 1.176.27 1.68.654.477.364 1.006.894 1.642 1.53l.037.036 5.947 5.947a9.51 9.51 0 0 0 1.089-.062c.461-.062.659-.169.789-.3.13-.13.237-.327.3-.788.064-.483.066-1.131.066-2.095V7c0-.964-.002-1.612-.067-2.095-.062-.461-.169-.659-.3-.789-.13-.13-.327-.237-.788-.3-.483-.064-1.131-.066-2.095-.066H7c-.964 0-1.612.002-2.095.067ZM3.817 19.095c.062.461.169.659.3.789.13.13.327.237.788.3.483.064 1.131.066 2.095.066h8.89l-4.892-4.891c-.682-.682-1.14-1.139-1.528-1.434-.37-.283-.586-.347-.77-.347-.185 0-.4.064-.77.347-.388.295-.847.752-1.528 1.434l-2.647 2.647c.006.445.022.797.062 1.089ZM13.45 9a1.75 1.75 0 1 1 3.5 0 1.75 1.75 0 0 1-3.5 0Zm1.75-3.25a3.25 3.25 0 1 0 0 6.5 3.25 3.25 0 0 0 0-6.5Z"/></svg>