<svg xmlns="http://www.w3.org/2000/svg" fill="none" viewBox="0 0 24 24"><path fill="color(display-p3 .0471 .6824 .3922)" d="M6 1h7.5L21 8.5v11a3 3 0 0 1-3 3H6a3 3 0 0 1-3-3V4a3 3 0 0 1 3-3Z"/><path fill="color(display-p3 .451 .8314 .6588)" d="M13.5 1 21 8.5h-5.5a2 2 0 0 1-2-2V1Z"/><path fill="#fff" d="M8.344 11.313v2.25a.281.281 0 0 0 .41.25l.809-.415.808.416a.281.281 0 0 0 .41-.25v-2.251h1.031v4.407H6.939c-.283 0-.544.096-.75.258v-4.102c0-.311.251-.563.562-.563h1.594Zm.562 0h1.313v1.79l-.528-.272a.281.281 0 0 0-.257 0l-.528.272v-1.79ZM6.75 10.75c-.621 0-1.125.504-1.125 1.126v5.25c0 .62.504 1.124 1.125 1.124h5.625v-7.5H6.75Zm.188 5.532h4.78v1.313h-4.78a.656.656 0 1 1 0-1.313Z" data-follow-fill="#fff"/></svg>