<svg xmlns="http://www.w3.org/2000/svg" fill="none" viewBox="0 0 24 24"><path fill="color(display-p3 .2549 .5137 .9686)" d="M6 1h7.5L21 8.5v11a3 3 0 0 1-3 3H6a3 3 0 0 1-3-3V4a3 3 0 0 1 3-3Z"/><path fill="color(display-p3 .5922 .7373 .9961)" d="M13.5 1 21 8.5h-5.5a2 2 0 0 1-2-2V1Z"/><path fill="#fff" d="m12.02 11.378-1.672 7.244h-.975l1.672-7.244h.975Zm.73 1.393 2.246 2.246-2.246 2.246-.59-.591 1.654-1.655-1.655-1.655.591-.591Zm-4.508-.017.591.591L7.177 15l1.655 1.655-.59.59L5.995 15l2.246-2.246Z" data-follow-fill="#fff"/></svg>