<svg xmlns="http://www.w3.org/2000/svg" fill="none" viewBox="0 0 24 24"><path fill="color(display-p3 .0824 .0941 .1137)" d="M8.767 2.781c.354-.37.842-.54 1.303-.53.439.009.767.197.911.285.146.089.305.205.438.303l6.489 4.747c.074.055.183.134.276.216a1.548 1.548 0 0 1 0 2.397c-.093.08-.202.16-.276.215l-6.489 4.747a6.53 6.53 0 0 1-.438.303 1.821 1.821 0 0 1-.91.286c-.462.01-.95-.16-1.304-.531a1.611 1.611 0 0 1-.424-.963 5.011 5.011 0 0 1-.017-.507V12.48a8.295 8.295 0 0 0-1.319.415 7.283 7.283 0 0 0-2.468 1.64 1.35 1.35 0 0 1-1.431.32 1.297 1.297 0 0 1-.858-1.212v-.397c.001-1.913.829-3.726 2.267-5.1 1.048-1 2.368-1.72 3.809-2.114V4.251c0-.145 0-.338.017-.507.018-.167.074-.596.424-.963Zm1.086 1.035-.004.01a.353.353 0 0 0-.014.076c-.009.081-.01.196-.01.368v2.355a.75.75 0 0 1-.598.735c-1.42.292-2.703.945-3.674 1.872-1.158 1.107-1.791 2.523-1.803 3.978a8.873 8.873 0 0 1 2.689-1.703 9.93 9.93 0 0 1 2.545-.66.75.75 0 0 1 .842.744v2.139c0 .172 0 .287.009.368a.355.355 0 0 0 .018.085c.034.036.1.069.186.067a.177.177 0 0 0 .06-.014.646.646 0 0 0 .103-.054c.085-.051.193-.13.346-.242l6.464-4.73c.088-.064.147-.108.188-.143a.344.344 0 0 0 .046-.048A.052.052 0 0 0 17.25 9c0-.005 0-.011-.004-.02l-.006-.008a.344.344 0 0 0-.04-.039c-.04-.035-.1-.079-.188-.143l-6.464-4.73a5.56 5.56 0 0 0-.346-.242.652.652 0 0 0-.103-.054.18.18 0 0 0-.06-.014.255.255 0 0 0-.186.066Zm0 0ZM13.5 15.75a.75.75 0 0 0 0 1.5H21a.75.75 0 0 0 0-1.5h-7.5ZM3 19.5A.75.75 0 0 0 3 21h18a.75.75 0 0 0 0-1.5H3Z"/></svg>