<svg xmlns="http://www.w3.org/2000/svg" fill="none" viewBox="0 0 24 24"><path fill="color(display-p3 .0824 .0941 .1137)" d="M11.997 2.75A9.25 9.25 0 0 0 2.747 12c0 1.395.308 2.716.86 3.9.102.22.178.465.209.726l.07.603a2.25 2.25 0 0 1-.061.842l-.522 1.95a.55.55 0 0 0 .674.673l2.226-.596a2.383 2.383 0 0 1 1.676.187 9.208 9.208 0 0 0 4.118.965v1.5a10.71 10.71 0 0 1-4.787-1.122.885.885 0 0 0-.62-.08l-2.226.595c-1.524.408-2.918-.986-2.51-2.51l.522-1.95a.75.75 0 0 0 .02-.28l-.07-.603a.876.876 0 0 0-.08-.267c-.641-1.379-.999-2.915-.999-4.533 0-5.937 4.813-10.75 10.75-10.75S22.747 6.063 22.747 12v.75h-1.5V12a9.25 9.25 0 0 0-9.25-9.25ZM6 10V8.5h12.75V10H6Zm0 3.5V15h7.75v-1.5H6Zm12.25 5.25H15v-1.5h3.25V14h1.5v3.25H23v1.5h-3.25V22h-1.5v-3.25Z"/></svg>