<svg xmlns="http://www.w3.org/2000/svg" fill="none" viewBox="0 0 24 24"><path fill="color(display-p3 .0824 .0941 .1137)" d="M17.484 14.615a.909.909 0 0 1 1.107-.654A4.546 4.546 0 0 1 22 18.362v1.818a.909.909 0 0 1-1.818 0v-1.818c0-1.269-.868-2.338-2.044-2.64a.909.909 0 0 1-.654-1.107ZM14.34 3.743a.909.909 0 0 1 1.184-.502 4.546 4.546 0 0 1 0 8.428.909.909 0 1 1-.682-1.685 2.728 2.728 0 0 0 0-5.058.909.909 0 0 1-.502-1.183ZM7.62 13.818h4.219c.991 0 1.668 0 2.248.155a4.545 4.545 0 0 1 3.213 3.213c.21.781.15 1.616.155 2.416.001.097.003.294-.046.477-.126.47-.494.838-.964.964-.183.049-.38.047-.477.046a781.63 781.63 0 0 0-12.478 0c-.097.001-.293.003-.476-.046a1.363 1.363 0 0 1-.964-.964c-.049-.183-.047-.38-.047-.477.007-.798-.054-1.636.155-2.416a4.545 4.545 0 0 1 3.214-3.213c.58-.156 1.256-.156 2.248-.155Z"/><path fill="color(display-p3 .0824 .0941 .1137)" d="M5.185 7.455a4.545 4.545 0 1 1 9.089 0 4.545 4.545 0 0 1-9.09 0Z"/></svg>