<svg xmlns="http://www.w3.org/2000/svg" fill="none" viewBox="0 0 24 24"><path fill="#FDC64A" d="M2 6a2 2 0 0 1 2-2h6a2 2 0 0 1 2 2v1.5h8a2 2 0 0 1 2 2V19a2 2 0 0 1-2 2H4a2 2 0 0 1-2-2V6Z"/><path fill="#F6A741" d="M12 6h7a1 1 0 0 1 1 1v.5h-8V6Z"/><path fill="#F68700" d="m15.485 16.754.475.422-.399.448-.41-.365a1.498 1.498 0 1 1 .334-.505Zm-5.886-5.053V13.5h1.798v-1.798H9.6ZM9 11.102h2.996v2.996H9v-2.996Zm.6 4.195v1.798h1.797v-1.798H9.6Zm-.6-.6h2.996v2.997H9v-2.996Zm4.195-2.996V13.5h1.798v-1.798h-1.798Zm-.6-.599h2.997v2.996h-2.996v-2.996Zm1.499 5.993a.899.899 0 1 0 0-1.798.899.899 0 0 0 0 1.798Z"/></svg>
