<svg xmlns="http://www.w3.org/2000/svg" fill="none" viewBox="0 0 24 24"><path fill="#FDC64A" d="M2 6a2 2 0 0 1 2-2h6a2 2 0 0 1 2 2v1.5h8a2 2 0 0 1 2 2V19a2 2 0 0 1-2 2H4a2 2 0 0 1-2-2V6Z"/><path fill="#F6A741" d="M12 6h7a1 1 0 0 1 1 1v.5h-8V6Z"/><path fill="#F68700" d="M11.143 11.249a.23.23 0 0 0 .015.005l-2.59-.81a.434.434 0 0 0-.523.425v6.2a.434.434 0 0 0 .523.425l2.655-.829a.541.541 0 0 0 .294-.481v-4.42a.544.544 0 0 0-.374-.515Zm-.278 4.745-2.169.578v-5.207l2.17.578v4.051Zm4.555-5.559a.548.548 0 0 0-.09.01l-2.559.8c.004 0 .007 0 .01-.002a.543.543 0 0 0-.4.523v4.417c0 .21.12.391.295.482l2.652.83a.434.434 0 0 0 .524-.426v-6.2a.431.431 0 0 0-.432-.434Z"/></svg>
