<svg xmlns="http://www.w3.org/2000/svg" fill="none" viewBox="0 0 24 24"><path fill="#FDC64A" d="M2 6a2 2 0 0 1 2-2h6a2 2 0 0 1 2 2v1.5h8a2 2 0 0 1 2 2V19a2 2 0 0 1-2 2H4a2 2 0 0 1-2-2V6Z"/><path fill="#F6A741" d="M12 6h7a1 1 0 0 1 1 1v.5h-8V6Z"/><path fill="#F68700" d="M13 12.5V15h-2.5v-2.5H13Zm.625 0H15.5V15h-1.875v-2.5Zm-.625 5h-2.5v-1.875H13V17.5Zm.625 0v-1.875H15.5V17.5h-1.875ZM13 10v1.875h-2.5V10H13Zm.625 0H15.5v1.875h-1.875V10Zm-3.75 2.5V15H8v-2.5h1.875Zm0 5H8v-1.875h1.875V17.5Zm0-7.5v1.875H8V10h1.875Z"/></svg>
