<svg xmlns="http://www.w3.org/2000/svg" fill="none" viewBox="0 0 24 24"><path fill="#FDC64A" d="M2 6a2 2 0 0 1 2-2h6a2 2 0 0 1 2 2v1.5h8a2 2 0 0 1 2 2V19a2 2 0 0 1-2 2H4a2 2 0 0 1-2-2V6Z"/><path fill="#F6A741" d="M12 6h7a1 1 0 0 1 1 1v.5h-8V6Z"/><path fill="#F68700" d="M12.398 13.898a.5.5 0 1 0 0 1 .5.5 0 0 0 0-1Z"/><path fill="#F6A741" d="M13.438 11.257a6.181 6.181 0 0 0-1.04.562 6.177 6.177 0 0 0-1.04-.562c-.386-.16-.764-.254-1.105-.257-.342-.002-.674.09-.919.334-.245.245-.337.577-.334.92.003.34.097.718.257 1.104.137.333.326.684.561 1.04a6.174 6.174 0 0 0-.561 1.04c-.16.387-.254.764-.257 1.105-.003.343.09.675.334.92.245.244.577.336.92.334.34-.003.718-.098 1.104-.257a6.176 6.176 0 0 0 1.04-.562c.356.235.707.425 1.04.562.387.16.764.254 1.105.257.343.002.675-.09.92-.335.244-.244.336-.576.334-.919-.003-.34-.098-.718-.257-1.105a6.173 6.173 0 0 0-.562-1.04 6.17 6.17 0 0 0 .562-1.04c.16-.386.254-.764.257-1.105.002-.342-.09-.674-.335-.919-.244-.245-.576-.336-.919-.334-.34.003-.718.098-1.105.257Zm.254.616c.338-.14.629-.205.856-.206.226-.002.362.058.443.139.08.08.14.217.139.442-.002.228-.067.518-.207.857a5.2 5.2 0 0 1-.366.713 9.686 9.686 0 0 0-1.579-1.578c.248-.151.488-.274.714-.367Zm-3.819 1.232c-.14-.339-.205-.63-.206-.857-.002-.225.058-.362.139-.442.08-.081.217-.141.442-.14.228.002.518.068.857.207.225.093.465.216.713.367a9.702 9.702 0 0 0-1.578 1.578 5.191 5.191 0 0 1-.367-.713Zm1.583.35c.31-.31.628-.585.942-.82.314.235.633.51.943.82.31.311.586.63.821.943a8.88 8.88 0 0 1-.82.943 8.87 8.87 0 0 1-.944.821 8.869 8.869 0 0 1-.942-.82 8.892 8.892 0 0 1-.822-.944c.236-.314.51-.632.822-.942Zm-1.583 2.237c.093-.226.216-.466.367-.713a9.7 9.7 0 0 0 1.578 1.578c-.248.15-.488.273-.713.366-.339.14-.63.205-.857.207-.225.002-.362-.058-.442-.139-.081-.08-.141-.217-.14-.443.002-.227.068-.518.207-.856Zm3.819 1.231a5.184 5.184 0 0 1-.714-.366 9.702 9.702 0 0 0 1.579-1.578c.15.247.273.487.366.713.14.338.205.629.207.856.002.226-.058.362-.139.443-.08.08-.217.14-.443.139-.227-.002-.518-.067-.856-.207Z"/></svg>
