<svg xmlns="http://www.w3.org/2000/svg" fill="none" viewBox="0 0 24 24"><path fill="color(display-p3 .9922 .7412 .2039)" d="M6 1h7.5L21 8.5v11a3 3 0 0 1-3 3H6a3 3 0 0 1-3-3V4a3 3 0 0 1 3-3Z"/><path fill="#fff" d="M13.187 10.801a3.662 3.662 0 0 0-.266.04l-3.52.586c-.101.017-.155.026-.194.036h-.003v.005c-.004.04-.004.094-.004.196V16.323a1.6 1.6 0 1 1-.8-1.387v-3.283c0-.087 0-.172.006-.246a.804.804 0 0 1 .064-.274.8.8 0 0 1 .287-.338c.09-.06.18-.09.26-.11.071-.017.156-.03.24-.045l3.546-.59c.116-.02.227-.039.321-.046a.815.815 0 0 1 .354.04.8.8 0 0 1 .416.352c.068.12.09.241.098.343.008.094.008.206.008.324v4.459a.401.401 0 0 1-.005.065 1.6 1.6 0 1 1-.795-1.449v-3.06c0-.138 0-.215-.005-.27V10.8h-.008Z" data-follow-fill="#fff"/><path fill="color(display-p3 .9961 .8588 .5647)" d="M13.5 1 21 8.5h-5.5a2 2 0 0 1-2-2V1Z"/></svg>