<svg xmlns="http://www.w3.org/2000/svg" fill="none" viewBox="0 0 24 24"><path fill="#2E7BFF" d="m13 2.016-.001-.064a1.032 1.032 0 0 0-.952-.95L12 1H8.759c-.805 0-1.47 0-2.01.044-.563.046-1.08.145-1.565.392a4 4 0 0 0-1.748 1.748c-.247.485-.346 1.002-.392 1.564C3 5.29 3 5.954 3 6.758v10.483c0 .805 0 1.47.044 2.01.046.563.145 1.08.392 1.565a4 4 0 0 0 1.748 1.748c.485.247 1.002.346 1.564.392C7.29 23 7.954 23 8.758 23h6.483c.805 0 1.47 0 2.01-.044.563-.046 1.08-.145 1.565-.392a4 4 0 0 0 1.748-1.748c.247-.485.346-1.002.392-1.564.044-.541.044-1.206.044-2.01V10l-.001-.047A1.032 1.032 0 0 0 20.048 9L19.985 9h-4.417c-.252 0-.498 0-.706-.017a2.022 2.022 0 0 1-.77-.201 2 2 0 0 1-.874-.874 2.02 2.02 0 0 1-.201-.77C13 6.93 13 6.684 13 6.432V2.016ZM8 13h8a1 1 0 1 1 0 2H8a1 1 0 1 1 0-2Zm0 4h6a1 1 0 1 1 0 2H8a1 1 0 1 1 0-2Z"/><path fill="#7BAEFF" d="M18.908 7H15.8c-.28 0-.42 0-.527-.055a.5.5 0 0 1-.218-.218C15 6.62 15 6.48 15 6.2V3.092c0-.294 0-.44.074-.56a.536.536 0 0 1 .543-.225c.137.032.233.128.424.32l3.332 3.332c.192.191.287.287.32.424a.536.536 0 0 1-.224.543c-.12.074-.267.074-.561.074Z"/></svg>
