<svg xmlns="http://www.w3.org/2000/svg" fill="none" viewBox="0 0 24 24"><path fill="#4C5CE4" d="M6 1h7.5L21 8.5v11a3 3 0 0 1-3 3H6a3 3 0 0 1-3-3V4a3 3 0 0 1 3-3Z"/><path fill="#9AA8FE" d="M13.5 1 21 8.5h-5.5a2 2 0 0 1-2-2V1Z"/><path fill="#fff" d="m13.59 13.568 1.182-.688c.214-.133.395-.023.395.2v3.71c0 .245-.181.334-.395.2l-1.181-.687c-.219-.133-.395-.266-.395-.488v-1.782c0-.222.181-.333.395-.465ZM11.984 12h-5.15a.821.821 0 0 0-.588.245.856.856 0 0 0-.245.598v4.147c0 .225.09.44.245.598a.817.817 0 0 0 .587.245h5.15a.818.818 0 0 0 .588-.245.857.857 0 0 0 .245-.598v-4.147a.856.856 0 0 0-.245-.598.821.821 0 0 0-.588-.245ZM8.05 14.588c-.4 0-.724-.331-.724-.74 0-.408.324-.739.724-.739.4 0 .724.331.724.74 0 .408-.324.739-.724.739Z" data-follow-fill="#fff"/></svg>
