<svg viewBox="0 0 24 24" fill="none" xmlns="http://www.w3.org/2000/svg">
  <g clip-path="url(#clip0_2756_6859)">
    <rect width="24" height="24" rx="4" fill="#FF9A5C"
      style="fill:#FF9A5C;fill:#FF9A5C;fill-opacity:1;" />
    <path
      d="M12.437 5.02537C12.2725 4.99154 12.1029 4.99154 11.9384 5.02537C11.7483 5.06447 11.5784 5.15965 11.4433 5.23532L11.4065 5.25589C10.3156 5.8619 8.47033 6.88757 7.42997 7.46586C7.17737 7.60627 7.05107 7.67648 7.00886 7.76927C6.97207 7.85015 6.97183 7.94296 7.00822 8.02403C7.04995 8.11703 7.176 8.18794 7.42811 8.32975L11.945 10.8705C12.0335 10.9203 12.0778 10.9452 12.1247 10.955C12.1663 10.9636 12.2091 10.9636 12.2507 10.955C12.2976 10.9452 12.3419 10.9203 12.4304 10.8705L16.9473 8.32974C17.1994 8.18793 17.3255 8.11702 17.3672 8.02403C17.4036 7.94295 17.4034 7.85015 17.3666 7.76926C17.3244 7.67647 17.1981 7.60627 16.9455 7.46586C15.9051 6.88757 14.0598 5.8619 12.969 5.25589L12.9322 5.23532C12.7971 5.15965 12.6272 5.06447 12.437 5.02537Z"
      fill="white" style="fill:white;fill-opacity:1;" />
    <path
      d="M18.3727 9.7929C18.3725 9.51549 18.3723 9.37679 18.3138 9.2958C18.2628 9.22515 18.1843 9.17929 18.0977 9.16952C17.9985 9.15833 17.8773 9.22646 17.6351 9.36274L13.0588 11.9369C12.9669 11.9886 12.921 12.0144 12.8876 12.051C12.858 12.0833 12.8356 12.1215 12.8219 12.1632C12.8065 12.2102 12.8065 12.2629 12.8065 12.3683V17.4268C12.8065 17.7035 12.8065 17.8418 12.8647 17.9227C12.9154 17.9933 12.9935 18.0393 13.0799 18.0494C13.1789 18.061 13.2995 17.9941 13.5406 17.8602C14.5717 17.2876 16.4456 16.247 17.5478 15.6347L17.5868 15.6131C17.7298 15.5344 17.9097 15.4353 18.0477 15.2855C18.1671 15.1559 18.2575 15.0024 18.3128 14.8351C18.3767 14.6416 18.3759 14.4363 18.3753 14.273L18.3752 14.2284C18.3752 13.0138 18.3737 10.9476 18.3727 9.7929Z"
      fill="white" style="fill:white;fill-opacity:1;" />
    <path
      d="M10.8348 17.8602C11.076 17.9941 11.1965 18.061 11.2955 18.0494C11.3819 18.0393 11.46 17.9933 11.5108 17.9227C11.569 17.8418 11.569 17.7035 11.569 17.4268V12.3683C11.569 12.263 11.569 12.2103 11.5535 12.1632C11.5398 12.1216 11.5175 12.0833 11.4879 12.051C11.4544 12.0144 11.4085 11.9886 11.3167 11.9369L6.7404 9.36275C6.49814 9.22648 6.37701 9.15834 6.27773 9.16954C6.19112 9.17931 6.11264 9.22516 6.06161 9.29582C6.00311 9.3768 6.003 9.51551 6.00276 9.79292C6.0018 10.9476 6.00023 13.0138 6.00023 14.2284L6.00012 14.273C5.99952 14.4363 5.99878 14.6416 6.0627 14.8351C6.11797 15.0024 6.20832 15.1559 6.32771 15.2855C6.46579 15.4353 6.6456 15.5343 6.78861 15.6131L6.8277 15.6347C7.92981 16.247 9.80378 17.2876 10.8348 17.8602Z"
      fill="white" style="fill:white;fill-opacity:1;" />
  </g>
  <defs>
    <clipPath id="clip0_2756_6859">
      <rect width="24" height="24" rx="4" fill="white" style="fill:white;fill-opacity:1;" />
    </clipPath>
  </defs>
</svg>
