<svg xmlns="http://www.w3.org/2000/svg" fill="none" viewBox="0 0 24 24"><rect fill="url(#a)" rx="4" height="24" width="24"/><path fill="#fff" d="M13.028 8.74a2.74 2.74 0 1 1-5.48 0 2.74 2.74 0 0 1 5.48 0Zm2.056 6.853c0 1.513-2.147 2.74-4.796 2.74-2.65 0-4.796-1.227-4.796-2.74 0-1.514 2.147-2.74 4.796-2.74 2.649 0 4.796 1.226 4.796 2.74Zm-.686-4.796a2.055 2.055 0 1 0-.704-3.988c.323.57.508 1.23.508 1.931 0 .703-.185 1.362-.51 1.933.22.08.458.123.706.123Zm1.013 6.851c1.703 0 3.098-.92 3.098-2.056 0-1.135-1.397-2.055-3.1-2.055.503.549.849 1.238.849 2.056 0 .818-.345 1.507-.847 2.055Z" data-follow-fill="#fff"/><defs><linearGradient gradientUnits="userSpaceOnUse" y2="24" x2="24" y1="0" x1="0" id="a"><stop stop-color="#1554FF"/><stop stop-color="#1554FF" offset="1"/></linearGradient></defs></svg>
