<svg xmlns="http://www.w3.org/2000/svg" fill="none" viewBox="0 0 24 24"><rect fill="url(#a)" rx="4" height="24" width="24"/><rect fill="url(#b)" rx="4" height="24" width="24"/><path fill="#fff" d="M13.833 5.333h1.334c1.257 0 1.885 0 2.276.391.39.39.39 1.02.39 2.276v10.167h.667a.5.5 0 0 1 0 1H5.167a.5.5 0 1 1 0-1h.666V10c0-1.257 0-1.885.39-2.276.391-.39 1.02-.39 2.277-.39h2.667c1.257 0 1.885 0 2.276.39.39.39.39 1.02.39 2.276v8.167h1V9.94c0-.577 0-1.106-.057-1.536-.064-.474-.214-.975-.626-1.387-.412-.412-.913-.562-1.387-.626-.424-.057-.945-.058-1.512-.058.056-.258.15-.452.306-.609.39-.39 1.02-.39 2.276-.39Zm-6.5 4a.5.5 0 0 0 .5.5h4a.5.5 0 1 0 0-1h-4a.5.5 0 0 0-.5.5Zm0 2a.5.5 0 0 0 .5.5h4a.5.5 0 1 0 0-1h-4a.5.5 0 0 0-.5.5Zm0 2a.5.5 0 0 0 .5.5h4a.5.5 0 1 0 0-1h-4a.5.5 0 0 0-.5.5Zm2.5 2.834a.5.5 0 0 0-.5.5v1.5h1v-1.5a.5.5 0 0 0-.5-.5Z" data-follow-fill="#fff"/><defs><linearGradient gradientUnits="userSpaceOnUse" y2="24" x2="24" y1="0" x1="0" id="a"><stop stop-color="color(display-p3 0 .3779 1)"/><stop stop-color="color(display-p3 0 .5713 .9849)" offset="1"/></linearGradient><linearGradient gradientUnits="userSpaceOnUse" y2="24" x2="24" y1="0" x1="0" id="b"><stop stop-color="#169F58"/><stop stop-color="#1BC959" offset="1"/></linearGradient></defs></svg>
