<svg viewBox="0 0 24 24" fill="none" xmlns="http://www.w3.org/2000/svg">
  <g clip-path="url(#clip0_2756_6886)">
    <rect width="24" height="24" rx="4" fill="#FF9A5C"
      style="fill:#FF9A5C;fill:#FF9A5C;fill-opacity:1;" />
    <rect width="24" height="24" rx="4" fill="#5B66FF"
      style="fill:#5B66FF;fill:#5B66FF;fill-opacity:1;" />
    <path
      d="M11.3367 6.89725V10.487C11.3367 10.6434 11.4181 10.7885 11.5516 10.87C11.6851 10.9514 11.8514 10.9575 11.9905 10.886L13.2807 10.2224L14.571 10.886C14.71 10.9575 14.8763 10.9514 15.0098 10.87C15.1433 10.7885 15.2248 10.6434 15.2248 10.487V6.89725H16.8697V13.9265H9.09358C8.6424 13.9265 8.22713 14.0802 7.89725 14.3381V7.7945C7.89725 7.29896 8.29896 6.89725 8.7945 6.89725H11.3367ZM12.2339 6.89725H14.3275V9.75182L13.4859 9.31899C13.3571 9.25277 13.2043 9.25277 13.0756 9.31899L12.2339 9.75182V6.89725ZM8.7945 6C7.80342 6 7 6.80342 7 7.7945V16.1688C7 17.1599 7.80342 17.9633 8.7945 17.9633H16.8697H17.767V17.0661V6.89725V6H16.8697H8.7945ZM9.09358 14.8237H16.7202V16.9173H9.09358C8.51545 16.9173 8.04679 16.4486 8.04679 15.8705C8.04679 15.2924 8.51545 14.8237 9.09358 14.8237Z"
      fill="white" style="fill:white;fill-opacity:1;" />
  </g>
  <defs>
    <clipPath id="clip0_2756_6886">
      <rect width="24" height="24" rx="4" fill="white" style="fill:white;fill-opacity:1;" />
    </clipPath>
  </defs>
</svg>
