<svg xmlns="http://www.w3.org/2000/svg" fill="none" viewBox="0 0 24 24"><rect fill="url(#a)" rx="4" height="24" width="24"/><path fill="#fff" d="M12.502 12.19a1 1 0 0 1-1.003 0l-2.52-1.461a1 1 0 0 1-.499-.865V6.936a1 1 0 0 1 .499-.865l2.52-1.46a1 1 0 0 1 1.002 0l2.52 1.46a1 1 0 0 1 .499.865v2.928a1 1 0 0 1-.498.865l-2.52 1.46Zm4.138 7.24a1 1 0 0 1-1 .001l-2.54-1.463a1 1 0 0 1-.5-.866v-2.924a1 1 0 0 1 .5-.867l2.54-1.463a1 1 0 0 1 1 .002l2.521 1.46a1 1 0 0 1 .499.866v2.928a1 1 0 0 1-.498.865L16.64 19.43Zm-10.8-2.614 2.02 1.17 2.02-1.17v-2.351l-2.02-1.171-2.02 1.17v2.352Zm5.041 1.153-2.52 1.46a1 1 0 0 1-1.002 0l-2.52-1.46a1 1 0 0 1-.499-.865v-2.927a1 1 0 0 1 .499-.866l2.52-1.46a1 1 0 0 1 1.002 0l2.52 1.46a1 1 0 0 1 .499.866v2.927a1 1 0 0 1-.499.865Z" data-follow-fill="#fff"/><defs><linearGradient gradientUnits="userSpaceOnUse" y2="24" x2="24" y1="0" x1="0" id="a"><stop stop-color="#F84100"/><stop stop-color="#F84100" offset="1"/></linearGradient></defs></svg>
