<svg viewBox="0 0 24 24" fill="none" xmlns="http://www.w3.org/2000/svg">
<g clip-path="url(#clip0_2902_6927)">
<rect width="24" height="24" rx="4" fill="#58B5FA" style="fill:#58B5FA;fill-opacity:1;"/>
<path d="M0 6.36C0 4.15752 0 3.05628 0.421821 2.21209C0.808994 1.43723 1.43723 0.808994 2.21209 0.421821C3.05628 0 4.15752 0 6.36 0H17.64C19.8425 0 20.9437 0 21.7879 0.421821C22.5628 0.808994 23.191 1.43723 23.5782 2.21209C24 3.05628 24 4.15752 24 6.36V17.64C24 19.8425 24 20.9437 23.5782 21.7879C23.191 22.5628 22.5628 23.191 21.7879 23.5782C20.9437 24 19.8425 24 17.64 24H6.36C4.15752 24 3.05628 24 2.21209 23.5782C1.43723 23.191 0.808994 22.5628 0.421821 21.7879C0 20.9437 0 19.8425 0 17.64V6.36Z" fill="#FF9A5C" style="fill:#FF9A5C;fill-opacity:1;"/>
<path d="M0 6.36C0 4.15752 0 3.05628 0.421821 2.21209C0.808994 1.43723 1.43723 0.808994 2.21209 0.421821C3.05628 0 4.15752 0 6.36 0H17.64C19.8425 0 20.9437 0 21.7879 0.421821C22.5628 0.808994 23.191 1.43723 23.5782 2.21209C24 3.05628 24 4.15752 24 6.36V17.64C24 19.8425 24 20.9437 23.5782 21.7879C23.191 22.5628 22.5628 23.191 21.7879 23.5782C20.9437 24 19.8425 24 17.64 24H6.36C4.15752 24 3.05628 24 2.21209 23.5782C1.43723 23.191 0.808994 22.5628 0.421821 21.7879C0 20.9437 0 19.8425 0 17.64V6.36Z" fill="#59D8A5" style="fill:#59D8A5;fill-opacity:1;"/>
<path d="M13 12.5C14.933 12.5 16.5 10.933 16.5 9C16.5 7.067 14.933 5.5 13 5.5C11.067 5.5 9.5 7.067 9.5 9C9.5 10.933 11.067 12.5 13 12.5Z" fill="white" style="fill:white;fill-opacity:1;"/>
<path fill-rule="evenodd" clip-rule="evenodd" d="M12.0957 13.5257C12.2456 13.556 12.3904 13.5881 12.5299 13.6215C13.5744 13.8716 13.5357 15.1015 12.5333 15.4871C12.5112 15.4956 12.49 15.5066 12.4703 15.5197L9.60658 17.4287C9.53708 17.475 9.45543 17.4997 9.37191 17.4997H6.5V16.1323C6.5 15.4298 6.87101 14.7797 7.52257 14.517C8.47412 14.1333 10.052 13.6424 12.0957 13.5257ZM7.656 13.397C7.47252 13.4625 7.30321 13.5272 7.14863 13.5895C6.05766 14.0294 5.5 15.092 5.5 16.1323V17.4997H4.42308C4.18942 17.4997 4 17.3103 4 17.0767V15.4964C4 14.9019 4.31393 14.3518 4.86525 14.1296C5.49394 13.8761 6.44573 13.5673 7.656 13.397ZM10.0253 12.3766C9.85481 12.4071 9.67926 12.423 9.49999 12.423C7.86438 12.423 6.53845 11.0971 6.53845 9.46146C6.53845 7.90975 7.73184 6.63676 9.25088 6.51025C8.77646 7.22325 8.5 8.0793 8.5 8.99993C8.5 10.3448 9.09 11.552 10.0253 12.3766ZM10.4124 6.64314C11.6015 7.02783 12.4615 8.14422 12.4615 9.46146C12.4615 10.503 11.9239 11.4189 11.111 11.9469C10.142 11.3245 9.5 10.2372 9.5 8.99993C9.5 8.09215 9.84559 7.26509 10.4124 6.64314Z" fill="white" style="fill:white;fill-opacity:1;"/>
<path d="M19.5233 14.6333C19.5233 14.6267 19.5166 14.62 19.5099 14.6133C19.4833 14.5733 19.4499 14.5333 19.4166 14.5C19.4099 14.4933 19.4033 14.48 19.3966 14.4733C18.8566 13.8733 18.0633 13.5 17.1899 13.5C16.3499 13.5 15.5833 13.8467 15.0366 14.4067C14.5099 14.9467 14.1899 15.6867 14.1899 16.5C14.1899 17.06 14.3499 17.5933 14.6233 18.0467C14.7699 18.2933 14.9566 18.52 15.1699 18.7067C15.1833 18.7133 15.1899 18.72 15.1966 18.7267C15.2299 18.76 15.2633 18.7867 15.3033 18.82C15.3033 18.82 15.3033 18.82 15.3099 18.82C15.3166 18.8267 15.3233 18.8333 15.3299 18.8333C15.8299 19.2533 16.4766 19.5 17.1899 19.5C18.2833 19.5 19.2366 18.9133 19.7566 18.0467C19.9099 17.7867 20.0299 17.5 20.1033 17.2C20.1633 16.9733 20.1899 16.74 20.1899 16.5C20.1899 15.7933 19.9433 15.14 19.5233 14.6333ZM18.3099 16.9867H17.6899V17.6333C17.6899 17.9067 17.4633 18.1333 17.1899 18.1333C16.9166 18.1333 16.6899 17.9067 16.6899 17.6333V16.9867H16.0699C15.7966 16.9867 15.5699 16.76 15.5699 16.4867C15.5699 16.2133 15.7966 15.9867 16.0699 15.9867H16.6899V15.3933C16.6899 15.12 16.9166 14.8933 17.1899 14.8933C17.4633 14.8933 17.6899 15.12 17.6899 15.3933V15.9867H18.3099C18.5833 15.9867 18.8099 16.2133 18.8099 16.4867C18.8099 16.76 18.5899 16.9867 18.3099 16.9867Z" fill="white" style="fill:white;fill-opacity:1;"/>
<path fill-rule="evenodd" clip-rule="evenodd" d="M14.5677 13.5778C14.0755 13.5286 13.552 13.5 13 13.5C10.5158 13.5 8.61011 14.0786 7.52257 14.5171C6.87101 14.7798 6.5 15.4299 6.5 16.1324V18C6.5 18.2761 6.72386 18.5 7 18.5H13.8343C13.494 17.9117 13.2992 17.2286 13.2992 16.5C13.2992 15.3469 13.7871 14.3078 14.5677 13.5778Z" fill="white" style="fill:white;fill-opacity:1;"/>
</g>
<defs>
<clipPath id="clip0_2902_6927">
<rect width="24" height="24" rx="4" fill="white" style="fill:white;fill-opacity:1;"/>
</clipPath>
</defs>
</svg>
