<svg viewBox="0 0 24 25" fill="none" xmlns="http://www.w3.org/2000/svg">
  <rect y="0.753906" width="24" height="24" rx="4" fill="#FFCE39"
    style="fill:#FFCE39;fill-opacity:1;" />
  <path fill-rule="evenodd" clip-rule="evenodd"
    d="M7.44093 5.4209H16.559H16.559C16.9104 5.42089 17.2136 5.42088 17.4633 5.44128C17.7269 5.46281 17.989 5.51036 18.2413 5.63889C18.6176 5.83063 18.9236 6.1366 19.1153 6.51292C19.2438 6.76517 19.2914 7.02732 19.3129 7.29088C19.3333 7.54059 19.3333 7.84376 19.3333 8.19519V9.31328C19.3333 9.66471 19.3333 9.96788 19.3129 10.2176C19.2914 10.4812 19.2438 10.7433 19.1153 10.9955C18.9236 11.3719 18.6176 11.6778 18.2413 11.8696C17.989 11.9981 17.7269 12.0457 17.4633 12.0672C17.2136 12.0876 16.9104 12.0876 16.559 12.0876H16.559H16.559H16.559H7.44093H7.44092H7.44091H7.4409C7.08948 12.0876 6.78632 12.0876 6.53661 12.0672C6.27305 12.0457 6.0109 11.9981 5.75865 11.8696C5.38232 11.6778 5.07636 11.3719 4.88462 10.9955C4.75609 10.7433 4.70854 10.4812 4.68701 10.2176C4.66661 9.96789 4.66662 9.66469 4.66663 9.31329V9.31326V8.19515V8.19513C4.66662 7.84373 4.66661 7.54058 4.68701 7.29088C4.70854 7.02732 4.75609 6.76517 4.88462 6.51292C5.07636 6.1366 5.38232 5.83063 5.75865 5.63889C6.0109 5.51036 6.27305 5.46281 6.53661 5.44128C6.78631 5.42088 7.08951 5.42089 7.44091 5.4209H7.44093ZM7.16663 8.75423C7.16663 8.294 7.53972 7.9209 7.99996 7.9209C8.4602 7.9209 8.83329 8.294 8.83329 8.75423C8.83329 9.21447 8.4602 9.58757 7.99996 9.58757C7.53972 9.58757 7.16663 9.21447 7.16663 8.75423ZM13.6472 13.4209H7.44093C7.0895 13.4209 6.78632 13.4209 6.53661 13.4413C6.27305 13.4628 6.0109 13.5104 5.75865 13.6389C5.38232 13.8306 5.07636 14.1366 4.88462 14.5129C4.75609 14.7652 4.70854 15.0273 4.68701 15.2909C4.66661 15.5406 4.66662 15.8437 4.66663 16.1951V16.1952V17.3133V17.3133C4.66662 17.6647 4.66661 17.9679 4.68701 18.2176C4.70854 18.4811 4.75609 18.7433 4.88462 18.9955C5.07636 19.3719 5.38232 19.6778 5.75865 19.8696C6.0109 19.9981 6.27305 20.0457 6.53661 20.0672C6.78633 20.0876 7.08951 20.0876 7.44095 20.0876H14.7971C13.339 19.4966 12.3107 18.0667 12.3107 16.3967C12.3107 15.2131 12.8272 14.1501 13.6472 13.4209ZM18.2198 19.8803C18.227 19.8768 18.2341 19.8732 18.2413 19.8696C18.3476 19.8154 18.4483 19.7521 18.5424 19.6807C18.4384 19.7521 18.3307 19.8188 18.2198 19.8803ZM7.99996 15.9209C7.53972 15.9209 7.16663 16.294 7.16663 16.7542C7.16663 17.2145 7.53972 17.5876 7.99996 17.5876C8.4602 17.5876 8.83329 17.2145 8.83329 16.7542C8.83329 16.294 8.4602 15.9209 7.99996 15.9209Z"
    fill="white" style="fill:white;fill-opacity:1;" />
  <path
    d="M18.6666 14.5743C18.6666 14.5676 18.6599 14.5609 18.6533 14.5543C18.6266 14.5143 18.5933 14.4743 18.5599 14.4409C18.5533 14.4343 18.5466 14.4209 18.5399 14.4143C17.9999 13.8143 17.2066 13.4409 16.3333 13.4409C15.4933 13.4409 14.7266 13.7876 14.1799 14.3476C13.6533 14.8876 13.3333 15.6276 13.3333 16.4409C13.3333 17.0009 13.4933 17.5343 13.7666 17.9876C13.9133 18.2343 14.0999 18.4609 14.3133 18.6476C14.3266 18.6543 14.3333 18.6609 14.3399 18.6676C14.3733 18.7009 14.4066 18.7276 14.4466 18.7609C14.4466 18.7609 14.4466 18.7609 14.4533 18.7609C14.4599 18.7676 14.4666 18.7743 14.4733 18.7743C14.9733 19.1943 15.6199 19.4409 16.3333 19.4409C17.4266 19.4409 18.3799 18.8543 18.8999 17.9876C19.0533 17.7276 19.1733 17.4409 19.2466 17.1409C19.3066 16.9143 19.3333 16.6809 19.3333 16.4409C19.3333 15.7343 19.0866 15.0809 18.6666 14.5743ZM17.4533 16.9276H16.8333V17.5743C16.8333 17.8476 16.6066 18.0743 16.3333 18.0743C16.0599 18.0743 15.8333 17.8476 15.8333 17.5743V16.9276H15.2133C14.9399 16.9276 14.7133 16.7009 14.7133 16.4276C14.7133 16.1543 14.9399 15.9276 15.2133 15.9276H15.8333V15.3343C15.8333 15.0609 16.0599 14.8343 16.3333 14.8343C16.6066 14.8343 16.8333 15.0609 16.8333 15.3343V15.9276H17.4533C17.7266 15.9276 17.9533 16.1543 17.9533 16.4276C17.9533 16.7009 17.7333 16.9276 17.4533 16.9276Z"
    fill="white" style="fill:white;fill-opacity:1;" />
</svg>
