<svg viewBox="0 0 24 24" fill="none" xmlns="http://www.w3.org/2000/svg">
<g clip-path="url(#clip0_2902_6918)">
<rect width="24" height="24" rx="4" fill="#58B5FA" style="fill:#58B5FA;fill-opacity:1;"/>
<rect width="24" height="24" rx="4" fill="#FF9A5C" style="fill:#FF9A5C;fill-opacity:1;"/>
<rect width="24" height="24" rx="4" fill="#58B5FA" style="fill:#58B5FA;fill-opacity:1;"/>
<path d="M12 12.5C13.933 12.5 15.5 10.933 15.5 9C15.5 7.067 13.933 5.5 12 5.5C10.067 5.5 8.5 7.067 8.5 9C8.5 10.933 10.067 12.5 12 12.5Z" fill="white" style="fill:white;fill-opacity:1;"/>
<path d="M19.3333 14.6685C19.3333 14.6618 19.3267 14.6552 19.32 14.6485C19.2933 14.6085 19.26 14.5685 19.2267 14.5352C19.22 14.5285 19.2133 14.5152 19.2067 14.5085C18.6667 13.9085 17.8733 13.5352 17 13.5352C16.16 13.5352 15.3933 13.8818 14.8467 14.4418C14.32 14.9818 14 15.7218 14 16.5352C14 17.0952 14.16 17.6285 14.4333 18.0818C14.58 18.3285 14.7667 18.5552 14.98 18.7418C14.9933 18.7485 15 18.7552 15.0067 18.7618C15.04 18.7952 15.0733 18.8218 15.1133 18.8552C15.1133 18.8552 15.1133 18.8552 15.12 18.8552C15.1267 18.8618 15.1333 18.8685 15.14 18.8685C15.64 19.2885 16.2867 19.5352 17 19.5352C18.0933 19.5352 19.0467 18.9485 19.5667 18.0818C19.72 17.8218 19.84 17.5352 19.9133 17.2352C19.9733 17.0085 20 16.7752 20 16.5352C20 15.8285 19.7533 15.1752 19.3333 14.6685ZM18.12 17.0218H17.5V17.6685C17.5 17.9418 17.2733 18.1685 17 18.1685C16.7267 18.1685 16.5 17.9418 16.5 17.6685V17.0218H15.88C15.6067 17.0218 15.38 16.7952 15.38 16.5218C15.38 16.2485 15.6067 16.0218 15.88 16.0218H16.5V15.4285C16.5 15.1552 16.7267 14.9285 17 14.9285C17.2733 14.9285 17.5 15.1552 17.5 15.4285V16.0218H18.12C18.3933 16.0218 18.62 16.2485 18.62 16.5218C18.62 16.7952 18.4 17.0218 18.12 17.0218Z" fill="white" style="fill:white;fill-opacity:1;"/>
<path fill-rule="evenodd" clip-rule="evenodd" d="M14.3167 13.6713C13.6171 13.5664 12.8418 13.5 12 13.5C9.51577 13.5 7.61011 14.0786 6.52257 14.5171C5.87101 14.7798 5.5 15.4299 5.5 16.1324V18C5.5 18.2761 5.72386 18.5 6 18.5H13.6243C13.2964 17.9197 13.1093 17.2493 13.1093 16.5352C13.1093 15.4125 13.5718 14.3978 14.3167 13.6713Z" fill="white" style="fill:white;fill-opacity:1;"/>
</g>
<defs>
<clipPath id="clip0_2902_6918">
<rect width="24" height="24" rx="4" fill="white" style="fill:white;fill-opacity:1;"/>
</clipPath>
</defs>
</svg>
