<svg viewBox="0 0 24 24" fill="none" xmlns="http://www.w3.org/2000/svg">
  <g clip-path="url(#clip0_2756_6874)">
    <rect width="24" height="24" rx="4" fill="#58B5FA"
      style="fill:#58B5FA;fill-opacity:1;" />
    <rect width="24" height="24" rx="4" fill="#FF9A5C"
      style="fill:#FF9A5C;fill-opacity:1;" />
    <rect width="24" height="24" rx="4" fill="#58B5FA"
      style="fill:#58B5FA;fill-opacity:1;" />
    <path
      d="M11.6072 10.7821C11.1515 10.7821 10.7822 11.1515 10.7822 11.6071C10.7822 12.0628 11.1515 12.4321 11.6072 12.4321C12.0628 12.4321 12.4322 12.0628 12.4322 11.6071C12.4322 11.1515 12.0628 10.7821 11.6072 10.7821Z"
      fill="white" style="fill:white;fill-opacity:1;" />
    <path
      d="M13.3227 6.42356C12.7738 6.64958 12.1945 6.96223 11.6071 7.3505C11.0197 6.96225 10.4404 6.64961 9.89155 6.4236C9.25348 6.16086 8.63024 6.00434 8.06801 6.00012C7.50306 5.99589 6.95529 6.14739 6.55132 6.55136C6.14736 6.95532 5.99585 7.50309 6.00009 8.06804C6.00431 8.63028 6.16083 9.25352 6.42356 9.89158C6.64958 10.4405 6.96222 11.0197 7.35047 11.6071C6.96222 12.1946 6.64958 12.7738 6.42356 13.3227C6.16082 13.9608 6.0043 14.584 6.00009 15.1463C5.99585 15.7112 6.14735 16.259 6.55132 16.6629C6.95528 17.0669 7.50305 17.2184 8.068 17.2142C8.63024 17.21 9.25348 17.0534 9.89154 16.7907C10.4404 16.5647 11.0197 16.252 11.6071 15.8638C12.1945 16.2521 12.7738 16.5647 13.3227 16.7907C13.9608 17.0535 14.584 17.21 15.1463 17.2142C15.7112 17.2185 16.259 17.0669 16.663 16.663C17.0669 16.259 17.2184 15.7112 17.2142 15.1463C17.21 14.5841 17.0534 13.9608 16.7907 13.3228C16.5647 12.7738 16.252 12.1946 15.8638 11.6071C16.252 11.0197 16.5647 10.4405 16.7907 9.89154C17.0534 9.25348 17.21 8.63024 17.2142 8.068C17.2184 7.50305 17.0669 6.95528 16.6629 6.55132C16.259 6.14735 15.7112 5.99585 15.1463 6.00009C14.584 6.0043 13.9608 6.16082 13.3227 6.42356ZM13.7415 7.4407C14.2999 7.21079 14.7791 7.10287 15.1545 7.10006C15.5272 7.09726 15.7521 7.19613 15.8851 7.32914C16.0181 7.46214 16.117 7.68711 16.1142 8.05975C16.1114 8.43512 16.0035 8.91435 15.7736 9.47272C15.6202 9.84508 15.4175 10.241 15.1687 10.6498C14.8008 10.1851 14.3896 9.72277 13.9406 9.27372C13.4915 8.82465 13.0292 8.41345 12.5644 8.04552C12.9732 7.79681 13.3692 7.59403 13.7415 7.4407ZM7.44071 9.47276C7.21079 8.91439 7.10288 8.43516 7.10006 8.05979C7.09727 7.68714 7.19613 7.46218 7.32914 7.32917C7.46215 7.19617 7.68711 7.0973 8.05976 7.10009C8.43513 7.10291 8.91436 7.21083 9.47272 7.44074C9.84507 7.59406 10.241 7.79683 10.6498 8.04552C10.1851 8.41345 9.72273 8.82463 9.27368 9.27368C8.82462 9.72274 8.41342 10.1851 8.04549 10.6498C7.7968 10.241 7.59403 9.8451 7.44071 9.47276ZM10.0515 10.0515C10.564 9.53903 11.0891 9.08512 11.6071 8.69626C12.1252 9.08513 12.6503 9.53905 13.1628 10.0515C13.6752 10.564 14.1291 11.0891 14.518 11.6071C14.1291 12.1252 13.6752 12.6503 13.1628 13.1628C12.6503 13.6752 12.1252 14.1292 11.6071 14.518C11.0891 14.1292 10.564 13.6753 10.0515 13.1628C9.53902 12.6503 9.0851 12.1252 8.69623 11.6071C9.0851 11.0891 9.53902 10.564 10.0515 10.0515ZM7.4407 13.7415C7.59402 13.3692 7.79679 12.9733 8.04549 12.5645C8.41342 13.0292 8.82462 13.4916 9.27368 13.9406C9.72273 14.3897 10.1851 14.8009 10.6498 15.1688C10.241 15.4175 9.84507 15.6202 9.47272 15.7736C8.91435 16.0035 8.43512 16.1114 8.05975 16.1142C7.68711 16.117 7.46214 16.0181 7.32914 15.8851C7.19613 15.7521 7.09726 15.5272 7.10006 15.1545C7.10287 14.7791 7.21079 14.2999 7.4407 13.7415ZM13.7415 15.7736C13.3692 15.6203 12.9732 15.4175 12.5644 15.1688C13.0292 14.8008 13.4915 14.3897 13.9406 13.9406C14.3896 13.4915 14.8008 13.0292 15.1688 12.5644C15.4175 12.9733 15.6202 13.3692 15.7736 13.7416C16.0035 14.3 16.1114 14.7792 16.1142 15.1545C16.117 15.5272 16.0181 15.7522 15.8851 15.8852C15.7521 16.0182 15.5272 16.117 15.1545 16.1142C14.7791 16.1114 14.2999 16.0035 13.7415 15.7736Z"
      fill="white" style="fill:white;fill-opacity:1;" />
  </g>
  <defs>
    <clipPath id="clip0_2756_6874">
      <rect width="24" height="24" rx="4" fill="white" style="fill:white;fill-opacity:1;" />
    </clipPath>
  </defs>
</svg>
