<svg viewBox="0 0 24 24" fill="none" xmlns="http://www.w3.org/2000/svg">
  <g clip-path="url(#clip0_2756_6883)">
    <rect width="24" height="24" rx="4" fill="#FF9A5C"
      style="fill:#FF9A5C;fill-opacity:1;" />
    <rect width="24" height="24" rx="4" fill="#7C8EB3"
      style="fill:#7C8EB3;fill-opacity:1;" />
    <path
      d="M16.7003 16.3258L17.4838 17.0226L16.8265 17.7616L16.1482 17.1584C15.7137 17.5897 15.1346 17.8444 14.5231 17.8732C13.9116 17.9021 13.3111 17.703 12.838 17.3145C12.3648 16.9261 12.0526 16.3758 11.9619 15.7704C11.8711 15.165 12.0082 14.5474 12.3466 14.0373C12.685 13.5271 13.2007 13.1607 13.7937 13.0089C14.3868 12.8571 15.0151 12.9308 15.557 13.2157C16.0989 13.5006 16.5158 13.9764 16.727 14.551C16.9382 15.1256 16.9287 15.7581 16.7003 16.3261V16.3258ZM6.98884 7.98884V10.9554H9.95537V7.98884H6.98884ZM6 7H10.9442V11.9442H6V7ZM6.98884 13.9219V16.8884H9.95537V13.9219H6.98884ZM6 12.9331H10.9442V17.8773H6V12.9331ZM12.9219 7.98884V10.9554H15.8884V7.98884H12.9219ZM11.9331 7H16.8773V11.9442H11.9331V7ZM14.4052 16.8884C14.6 16.8884 14.7929 16.8501 14.9728 16.7756C15.1528 16.701 15.3163 16.5918 15.4541 16.454C15.5918 16.3163 15.7011 16.1528 15.7756 15.9728C15.8502 15.7928 15.8886 15.6 15.8886 15.4052C15.8886 15.2104 15.8502 15.0175 15.7756 14.8375C15.7011 14.6575 15.5918 14.494 15.4541 14.3563C15.3163 14.2186 15.1528 14.1093 14.9728 14.0348C14.7929 13.9602 14.6 13.9219 14.4052 13.9219C14.0118 13.9219 13.6346 14.0782 13.3564 14.3564C13.0783 14.6345 12.922 15.0118 12.922 15.4052C12.922 15.7985 13.0783 16.1758 13.3564 16.4539C13.6346 16.7321 14.0118 16.8884 14.4052 16.8884Z"
      fill="white" style="fill:white;fill-opacity:1;" />
  </g>
  <defs>
    <clipPath id="clip0_2756_6883">
      <rect width="24" height="24" rx="4" fill="white" style="fill:white;fill-opacity:1;" />
    </clipPath>
  </defs>
</svg>
