<svg viewBox="0 0 24 24" fill="none" xmlns="http://www.w3.org/2000/svg">
  <rect width="24" height="24" rx="4" fill="url(#paint0_linear_2736_50367)" style="" />
  <path fill-rule="evenodd" clip-rule="evenodd"
    d="M6.66671 6.00016C6.66671 5.63197 6.36823 5.3335 6.00004 5.3335C5.63185 5.3335 5.33337 5.63197 5.33337 6.00016V12.8277C5.33337 13.3643 5.33336 13.8073 5.36284 14.168C5.39345 14.5428 5.45916 14.8872 5.62402 15.2108C5.87969 15.7126 6.28763 16.1205 6.7894 16.3762C7.11296 16.541 7.45743 16.6068 7.83216 16.6374C8.19295 16.6668 8.63585 16.6668 9.17249 16.6668H13.4174C13.7134 17.817 14.7575 18.6668 16 18.6668C17.4728 18.6668 18.6667 17.4729 18.6667 16.0002C18.6667 14.5274 17.4728 13.3335 16 13.3335C14.7575 13.3335 13.7134 14.1833 13.4174 15.3335H9.20004C8.62899 15.3335 8.24079 15.333 7.94073 15.3085C7.64846 15.2846 7.49899 15.2413 7.39472 15.1882C7.14384 15.0603 6.93986 14.8564 6.81203 14.6055C6.75891 14.5012 6.71562 14.3517 6.69174 14.0595C6.66723 13.7594 6.66671 13.3712 6.66671 12.8002V10.0002L13.4174 10.0002C13.7134 11.1503 14.7575 12.0002 16 12.0002C17.4728 12.0002 18.6667 10.8063 18.6667 9.3335C18.6667 7.86074 17.4728 6.66683 16 6.66683C14.7575 6.66683 13.7134 7.51668 13.4174 8.66683L6.66671 8.66683V6.00016Z"
    fill="white" style="fill:white;fill-opacity:1;" />
  <defs>
    <linearGradient id="paint0_linear_2736_50367" x1="0" y1="0" x2="24" y2="24" gradientUnits="userSpaceOnUse">
      <stop stop-color="#0060FF"
        style="stop-color:#0060FF;stop-opacity:1;" />
      <stop offset="1" stop-color="#0092FB"
        style="stop-color:#0092FB;stop-opacity:1;" />
    </linearGradient>
  </defs>
</svg>
