<svg xmlns="http://www.w3.org/2000/svg" fill="none" viewBox="0 0 24 24"><path fill="#000000" d="M9 1.5c.789 0 1.534.187 2.193.52l-.946 1.218A3.375 3.375 0 1 0 8.93 9.749v1.5A4.875 4.875 0 0 1 9 1.5ZM.811 14.154a19.244 19.244 0 0 1 8.12-1.823v1.5c-2.655.01-5.165.605-7.431 1.657V18h2.786v1.5H.75a.75.75 0 0 1-.75-.75v-3.287c0-.557.307-1.073.811-1.31Z"/><path fill="#000000" d="M15 12.47a4.875 4.875 0 1 1 0-9.75 4.875 4.875 0 0 1 0 9.75Zm0-1.5a3.375 3.375 0 1 0 0-6.75 3.375 3.375 0 0 0 0 6.75ZM24 17.277c0-.557-.307-1.073-.811-1.31A19.243 19.243 0 0 0 15 14.146c-2.927 0-5.697.656-8.189 1.823A1.434 1.434 0 0 0 6 17.277V21c0 .414.336.75.75.75h16.5A.75.75 0 0 0 24 21v-3.723Zm-1.5.025v2.948h-15v-2.948a17.743 17.743 0 0 1 7.5-1.657c2.68 0 5.214.595 7.5 1.657Z"/></svg>
