<svg xmlns="http://www.w3.org/2000/svg" fill="none" viewBox="0 0 24 24"><path fill="#000" d="M10.453 4.162c.252-.28.612-.42.968-.412.304.007.547.146.698.243.154.099.332.237.52.382l8.403 6.504c.105.081.218.169.308.251.097.09.234.233.318.442.11.276.11.58 0 .856-.084.21-.22.352-.318.442-.09.082-.203.17-.308.251l-8.403 6.504a7.962 7.962 0 0 1-.52.382c-.15.097-.394.236-.698.243a1.267 1.267 0 0 1-.968-.412c-.224-.248-.27-.547-.287-.72-.018-.177-.018-.395-.018-.614v-2.942c-1.06.138-2.09.421-3.058.84a10.423 10.423 0 0 0-3.538 2.491.75.75 0 0 1-1.302-.507v-.546c.001-2.325.951-4.555 2.645-6.266 1.406-1.42 3.243-2.402 5.253-2.84V5.497c0-.22 0-.438.018-.615.017-.173.063-.472.287-.72Zm1.195 1.344v3.851a.75.75 0 0 1-.633.74c-1.959.31-3.739 1.204-5.054 2.532-1.112 1.124-1.83 2.495-2.096 3.947.797-.618 1.68-1.14 2.629-1.55 1.37-.594 2.85-.945 4.358-1.037a.75.75 0 0 1 .796.748v3.757l.095-.073L20.04 12l-8.296-6.421-.095-.073Z"/></svg>
