<svg viewBox="0 0 25 24" fill="none" xmlns="http://www.w3.org/2000/svg">
<path d="M21.3535 2.87868C22.5251 4.05025 22.5251 5.94975 21.3535 7.12132C20.1819 8.29289 18.2824 8.29289 17.1109 7.12132C15.9393 5.94975 15.9393 4.05025 17.1109 2.87868C18.2824 1.70711 20.1819 1.70711 21.3535 2.87868Z" fill="#15181D" style="fill:#15181D;fill-opacity:1;"/>
<path d="M22.2323 10.6031C22.2323 10.0804 22.2323 9.81898 22.1538 9.69597C22.073 9.56938 21.9995 9.51644 21.8539 9.47992C21.7123 9.44443 21.4148 9.54378 20.8196 9.74248C19.0791 10.3236 17.0824 9.92125 15.6966 8.53553C14.3109 7.14984 13.9086 5.15316 14.4897 3.41267C14.6884 2.81751 14.7877 2.51992 14.7522 2.37839C14.7157 2.23273 14.6628 2.15925 14.5362 2.07848C14.4131 2 14.1518 2 13.6291 2H7.99097C7.18601 1.99999 6.52164 1.99998 5.98045 2.04419C5.41835 2.09012 4.90165 2.18868 4.41631 2.43598C3.66366 2.81947 3.05174 3.43139 2.66825 4.18404C2.42096 4.66937 2.32239 5.18608 2.27647 5.74817C2.23225 6.28937 2.23226 6.95373 2.23227 7.7587L2.23222 14.1376C2.23179 14.933 2.23147 15.5236 2.36857 16.0353C2.73844 17.4156 3.81663 18.4938 5.197 18.8637C5.50446 18.9461 5.84046 18.9788 6.23227 18.9918L6.23227 20.371C6.23222 20.6062 6.23218 20.846 6.25003 21.0425C6.2671 21.2305 6.3123 21.5852 6.55996 21.8955C6.84494 22.2525 7.27708 22.4602 7.73389 22.4597C8.13088 22.4593 8.43611 22.273 8.59354 22.1689C8.75815 22.06 8.94537 21.9102 9.12905 21.7632L11.5422 19.8327C12.0608 19.4178 12.2147 19.3007 12.3747 19.219C12.5352 19.137 12.706 19.0771 12.8825 19.0408C13.0585 19.0047 13.2519 19 13.916 19H16.4736C17.2786 19 17.9429 19 18.4841 18.9558C19.0462 18.9099 19.5629 18.8113 20.0482 18.564C20.8009 18.1805 21.4128 17.5686 21.7963 16.816C22.0436 16.3306 22.1422 15.8139 22.1881 15.2518C22.2323 14.7106 22.2323 14.0463 22.2323 13.2413V10.6031Z" fill="#15181D" style="fill:#15181D;fill-opacity:1;"/>
</svg>
