<svg viewBox="0 0 25 24" fill="none" xmlns="http://www.w3.org/2000/svg">
<path fill-rule="evenodd" clip-rule="evenodd" d="M17.1614 2.00049C17.1614 1.4482 16.7137 1.00049 16.1614 1.00049C15.6091 1.00049 15.1614 1.4482 15.1614 2.00049V3.00049H9.16138V2.00049C9.16138 1.4482 8.71366 1.00049 8.16138 1.00049C7.60909 1.00049 7.16138 1.4482 7.16138 2.00049V3.00211C6.68591 3.00538 6.27036 3.0152 5.90955 3.04468C5.34746 3.09061 4.83075 3.18917 4.34542 3.43646C3.59277 3.81996 2.98085 4.43188 2.59735 5.18453C2.35006 5.66986 2.2515 6.18657 2.20557 6.74866C2.16136 7.28985 2.16137 7.95422 2.16138 8.75917V17.2418C2.16137 18.0468 2.16136 18.7111 2.20557 19.2523C2.2515 19.8144 2.35006 20.3311 2.59735 20.8164C2.98085 21.5691 3.59277 22.181 4.34542 22.5645C4.83075 22.8118 5.34746 22.9104 5.90955 22.9563C6.45074 23.0005 7.1151 23.0005 7.92005 23.0005H16.4027C17.2077 23.0005 17.872 23.0005 18.4132 22.9563C18.9753 22.9104 19.492 22.8118 19.9773 22.5645C20.73 22.181 21.3419 21.5691 21.7254 20.8164C21.9727 20.3311 22.0713 19.8144 22.1172 19.2523C22.1614 18.7111 22.1614 18.0468 22.1614 17.2418V8.75917C22.1614 7.95421 22.1614 7.28985 22.1172 6.74866C22.0713 6.18657 21.9727 5.66986 21.7254 5.18453C21.3419 4.43188 20.73 3.81996 19.9773 3.43646C19.492 3.18917 18.9753 3.09061 18.4132 3.04468C18.0524 3.0152 17.6368 3.00538 17.1614 3.00211V2.00049ZM7.16138 6.00049V5.00225C6.71585 5.00538 6.36601 5.01405 6.07242 5.03804C5.634 5.07386 5.4098 5.13879 5.2534 5.21848C4.87707 5.41022 4.57111 5.71618 4.37937 6.09251C4.29968 6.24891 4.23475 6.47311 4.19893 6.91153C4.16216 7.36162 4.16138 7.94391 4.16138 8.80049V9.00049H20.1614V8.80049C20.1614 7.94391 20.1606 7.36162 20.1238 6.91153C20.088 6.47311 20.0231 6.24891 19.9434 6.09251C19.7516 5.71618 19.4457 5.41022 19.0694 5.21848C18.913 5.13879 18.6888 5.07386 18.2503 5.03804C17.9567 5.01405 17.6069 5.00538 17.1614 5.00225V6.00049C17.1614 6.55277 16.7137 7.00049 16.1614 7.00049C15.6091 7.00049 15.1614 6.55277 15.1614 6.00049V5.00049H9.16138V6.00049C9.16138 6.55277 8.71366 7.00049 8.16138 7.00049C7.60909 7.00049 7.16138 6.55277 7.16138 6.00049ZM16.3685 14.2076C16.759 13.8171 16.759 13.1839 16.3685 12.7934C15.978 12.4029 15.3448 12.4029 14.9543 12.7934L11.1614 16.5863L9.86848 15.2934C9.47796 14.9029 8.84479 14.9029 8.45427 15.2934C8.06375 15.6839 8.06375 16.3171 8.45427 16.7076L10.4543 18.7076C10.8448 19.0981 11.478 19.0981 11.8685 18.7076L16.3685 14.2076Z" fill="#15181D" style="fill:#15181D;fill-opacity:1;"/>
</svg>
