<svg xmlns="http://www.w3.org/2000/svg" fill="none" viewBox="0 0 24 24"><path fill="#000000" d="M10.75 3a.25.25 0 0 1 .25-.25h8a.25.25 0 0 1 .25.25v8.5h1.5V3A1.75 1.75 0 0 0 19 1.25h-8A1.75 1.75 0 0 0 9.25 3v7.268A1.762 1.762 0 0 0 9 10.25H5A1.75 1.75 0 0 0 3.25 12v8c0 .085.006.168.018.25H1.5v1.5h15v-1.5H11a.25.25 0 0 1-.25-.25V3Zm-1.5 9v8a.25.25 0 0 1-.25.25H5a.25.25 0 0 1-.25-.25v-8a.25.25 0 0 1 .25-.25h4a.25.25 0 0 1 .25.25ZM9 17.25H5.25v-1.5H9v1.5Zm3-4.5h6v-1.5h-6v1.5Zm6-4.5h-6v-1.5h6v1.5Zm.375 13.5v-3.375H15v-1.5h3.375V13.5h1.5v3.375h3.375v1.5h-3.375v3.375h-1.5Z"/></svg>
