<svg xmlns="http://www.w3.org/2000/svg" fill="none" viewBox="0 0 24 24"><path fill="#000" d="M9.5 3.75a3.25 3.25 0 1 0 0 6.5 3.25 3.25 0 0 0 0-6.5ZM4.75 7a4.75 4.75 0 1 1 9.5 0 4.75 4.75 0 0 1-9.5 0Zm10.055-3.99a.75.75 0 0 1 .976-.414 4.751 4.751 0 0 1 0 8.808.75.75 0 1 1-.562-1.39 3.251 3.251 0 0 0 0-6.028.75.75 0 0 1-.414-.977ZM7.973 14.25h3.054c.91 0 1.63 0 2.213.04.596.04 1.104.125 1.578.322a4.75 4.75 0 0 1 2.57 2.57c.197.474.281.982.322 1.578.04.584.04 1.304.04 2.213V21a.75.75 0 0 1-1.5 0c0-.942 0-1.611-.036-2.138-.036-.52-.103-.845-.211-1.106a3.25 3.25 0 0 0-1.76-1.759c-.26-.108-.586-.175-1.105-.21-.527-.037-1.196-.037-2.138-.037H8c-.942 0-1.611 0-2.138.036-.52.036-.845.103-1.106.211a3.25 3.25 0 0 0-1.759 1.76c-.108.26-.175.586-.21 1.105-.037.527-.037 1.196-.037 2.138a.75.75 0 0 1-1.5 0v-.027c0-.91 0-1.63.04-2.213.04-.596.125-1.104.322-1.578a4.75 4.75 0 0 1 2.57-2.57c.474-.197.982-.281 1.578-.322.584-.04 1.304-.04 2.213-.04Zm10.3.69a.75.75 0 0 1 .914-.54A4.752 4.752 0 0 1 22.75 19v2a.75.75 0 0 1-1.5 0v-2a3.252 3.252 0 0 0-2.437-3.148.75.75 0 0 1-.54-.913Z"/></svg>
