<svg xmlns="http://www.w3.org/2000/svg" fill="none" viewBox="0 0 24 24"><path fill="#000" d="M13.25 2.805v3.621c0 .258 0 .494.016.692.018.213.057.446.175.677.167.329.435.597.764.764.23.118.464.158.677.175.198.016.434.016.692.016h3.621c.05.231.055.504.055 1.238V17.2c0 .852 0 1.447-.038 1.91-.038.453-.107.714-.207.912a2.25 2.25 0 0 1-.983.983c-.198.1-.459.17-.913.207-.462.037-1.057.038-1.909.038H8.8c-.852 0-1.447 0-1.91-.038-.453-.037-.714-.107-.911-.207a2.25 2.25 0 0 1-.984-.983c-.1-.198-.17-.459-.207-.913-.037-.462-.038-1.057-.038-1.909V6.8c0-.852 0-1.447.038-1.91.037-.453.107-.714.207-.911a2.25 2.25 0 0 1 .984-.984c.197-.1.458-.17.912-.207.462-.037 1.057-.038 1.909-.038h3.212c.734 0 1.007.004 1.238.055Zm1.047-1.225a3.75 3.75 0 0 0-.664-.226c-.433-.104-.884-.104-1.536-.104H8.768c-.813 0-1.469 0-2 .043-.546.045-1.026.14-1.47.366a3.75 3.75 0 0 0-1.64 1.639c-.226.444-.32.924-.365 1.47-.043.531-.043 1.187-.043 2v10.464c0 .813 0 1.469.043 2 .045.546.14 1.026.366 1.47a3.75 3.75 0 0 0 1.639 1.64c.444.226.924.32 1.47.365.531.043 1.187.043 2 .043h6.464c.813 0 1.469 0 2-.043.546-.045 1.026-.14 1.47-.366a3.75 3.75 0 0 0 1.64-1.639c.226-.444.32-.924.365-1.47.043-.531.043-1.187.043-2V9.903c0-.652 0-1.103-.104-1.536a3.743 3.743 0 0 0-.449-1.084c-.232-.38-.551-.698-1.012-1.159l-.06-.06-3.189-3.188-.06-.06c-.46-.462-.78-.78-1.16-1.013a3.743 3.743 0 0 0-.42-.223Zm.453 2.23.126.126 3.188 3.188.125.126H15.6c-.292 0-.467 0-.596-.011a.625.625 0 0 1-.12-.018.25.25 0 0 1-.105-.104.638.638 0 0 1-.018-.121 8.375 8.375 0 0 1-.011-.596V3.81Zm.13 3.41h.002Zm-.1-.1v-.002ZM7.25 13a.75.75 0 0 1 .75-.75h8a.75.75 0 0 1 0 1.5H8a.75.75 0 0 1-.75-.75Zm0 4a.75.75 0 0 1 .75-.75h6a.75.75 0 0 1 0 1.5H8a.75.75 0 0 1-.75-.75Z"/></svg>
