<svg xmlns="http://www.w3.org/2000/svg" fill="none" viewBox="0 0 24 24"><g clip-path="url(#a)"><rect fill="color(display-p3 .3469 .7101 .9794)" rx="4" height="24" width="24"/><rect fill="color(display-p3 1 .6021 .3625)" rx="4" height="24" width="24"/><rect fill="color(display-p3 .3451 .7098 .9804)" rx="4" height="24" width="24"/><path fill="#fff" d="M17.335 18.591a1.202 1.202 0 0 0 1.2-1.2v-5.013c-1.049.719-3.084 1.189-5.603 1.293v1.535c0 .083-.068.15-.151.15h-1.709a.152.152 0 0 1-.15-.15v-1.533a15.974 15.974 0 0 1-4.414-.718 5.089 5.089 0 0 1-1.188-.574v5.01a1.201 1.201 0 0 0 1.198 1.2h10.817Zm-4.465-5.824c2.357-.095 4.292-.527 5.179-1.156.31-.22.485-.449.485-.678V8.868a1.203 1.203 0 0 0-1.2-1.2H15.47V6.213a.827.827 0 0 0-.7-.817H9.081a.83.83 0 0 0-.701.817V7.67H6.516a1.199 1.199 0 0 0-1.198 1.197v2.066a.783.783 0 0 0 .337.567 3.65 3.65 0 0 0 1.151.6c1.663.492 3.392.723 5.126.686.313.001.625-.005.938-.018ZM9.736 7.669V6.87a.215.215 0 0 1 .214-.215h3.955a.216.216 0 0 1 .213.215v.798H9.735Z" data-follow-fill="#fff"/></g><defs><clipPath id="a"><rect fill="#fff" rx="4" height="24" width="24" data-follow-fill="#fff"/></clipPath></defs></svg>