<svg xmlns="http://www.w3.org/2000/svg" fill="none" viewBox="0 0 24 24"><g clip-path="url(#a)"><rect fill="color(display-p3 1 .6021 .3625)" rx="4" height="24" width="24"/><path fill="#fff" d="M5 11.912c0-.831.306-1.575.919-2.231.131-.131.262-.306.35-.438.831-1.05 1.793-1.968 2.8-2.843.306-.263.568-.525.875-.744.437-.35.962-.569 1.575-.656 1.05-.131 1.969.175 2.756.918.306.263.612.526.963.788 1.006.875 1.925 1.794 2.712 2.844.131.175.306.35.438.568.48.7.656 1.532.524 2.363-.087.7-.393 1.269-.874 1.794l-.788.918c-.569.657-1.137 1.27-1.794 1.838-.35.306-.7.569-1.05.875-.219.175-.394.35-.612.481a3.345 3.345 0 0 1-2.407.525c-.7-.087-1.268-.393-1.793-.875-.131-.131-.263-.218-.438-.35a17.828 17.828 0 0 1-2.45-2.362c-.262-.35-.569-.656-.831-1.006-.044-.132-.219-.35-.35-.57-.35-.524-.525-1.137-.525-1.837Zm5.819 1.269v2.756c0 .307.175.482.481.482h1.4a.335.335 0 0 0 .219-.088.89.89 0 0 0 .262-.656v-2.407c0-.087 0-.087.088-.087h2.756c.219 0 .394-.175.438-.394v-1.444a.621.621 0 0 0-.088-.262c-.087-.131-.262-.175-.438-.175h-2.756V8.15c0-.35-.175-.525-.525-.525h-1.312c-.088 0-.175 0-.263.043a.481.481 0 0 0-.262.438v2.756H8.062c-.306 0-.48.175-.48.482V12.7c0 .131.043.219.087.306.087.131.262.175.437.175h2.713Z" data-follow-fill="#fff"/></g><defs><clipPath id="a"><rect fill="#fff" rx="4" height="24" width="24" data-follow-fill="#fff"/></clipPath></defs></svg>