<svg xmlns="http://www.w3.org/2000/svg" fill="none" viewBox="0 0 24 24"><g clip-path="url(#a)"><rect fill="color(display-p3 1 .6021 .3625)" rx="4" height="24" width="24"/><rect fill="color(display-p3 .3451 .7098 .9804)" rx="4" height="24" width="24"/><path fill="#fff" d="M15.16 13.059v-3.61l-2.848-2.052V6.342h2.534V5h-2.888v2.397L9.073 9.559v3.5H5.52V19h5.239v-2.282c0-.676.572-1.225 1.278-1.225.72 0 1.305.56 1.305 1.252V19h5.138v-5.941h-3.32Zm-3.09-.894c-.705 0-1.278-.548-1.278-1.225s.573-1.226 1.278-1.226c.706 0 1.279.55 1.279 1.226 0 .677-.573 1.225-1.279 1.225Z" data-follow-fill="#fff"/></g><defs><clipPath id="a"><rect fill="#fff" rx="4" height="24" width="24" data-follow-fill="#fff"/></clipPath></defs></svg>