<svg xmlns="http://www.w3.org/2000/svg" fill="none" viewBox="0 0 24 24"><path fill="color(display-p3 .9843 .451 .2471)" d="M6 1h7.5L21 8.5v11a3 3 0 0 1-3 3H6a3 3 0 0 1-3-3V4a3 3 0 0 1 3-3Z"/><path fill="color(display-p3 .9882 .6667 .5451)" d="M13.5 1 21 8.5h-5.5a2 2 0 0 1-2-2V1Z"/><path fill="#fff" d="M10.139 11.249a.23.23 0 0 0 .015.005l-2.59-.81a.434.434 0 0 0-.523.425v6.2a.434.434 0 0 0 .523.425l2.655-.829a.541.541 0 0 0 .294-.481v-4.42a.544.544 0 0 0-.374-.515Zm-.278 4.745-2.169.578v-5.207l2.17.578v4.051Zm4.555-5.559a.548.548 0 0 0-.09.01l-2.558.8c.003 0 .006 0 .008-.002a.543.543 0 0 0-.398.523v4.417c0 .21.12.391.294.482l2.652.83a.434.434 0 0 0 .524-.426v-6.2a.431.431 0 0 0-.432-.434Z" data-follow-fill="#fff"/></svg>