<svg xmlns="http://www.w3.org/2000/svg" fill="none" viewBox="0 0 24 24"><path fill="color(display-p3 .3882 .4549 .8824)" d="M6 1h7.5L21 8.5v11a3 3 0 0 1-3 3H6a3 3 0 0 1-3-3V4a3 3 0 0 1 3-3Z"/><path fill="color(display-p3 .6706 .7176 .9686)" d="M13.5 1 21 8.5h-5.5a2 2 0 0 1-2-2V1Z"/><path fill="#fff" d="M9.394 13.898a.5.5 0 1 0 0 1 .5.5 0 0 0 0-1Z" data-follow-fill="#fff"/><path fill="#fff" d="M10.434 11.257a6.177 6.177 0 0 0-1.04.562 6.178 6.178 0 0 0-1.04-.562c-.386-.16-.764-.254-1.105-.257-.342-.002-.674.09-.919.334-.245.245-.336.577-.334.92.003.34.098.718.257 1.104.137.333.326.684.562 1.04a6.175 6.175 0 0 0-.562 1.04c-.16.387-.254.764-.257 1.105-.002.343.09.675.334.92.245.244.577.336.92.334.34-.003.718-.098 1.105-.257a6.177 6.177 0 0 0 1.04-.562 6.17 6.17 0 0 0 1.04.562c.386.16.763.254 1.104.257.343.002.675-.09.92-.335.244-.244.336-.576.334-.919-.003-.34-.098-.718-.257-1.105a6.18 6.18 0 0 0-.562-1.04c.235-.356.425-.707.562-1.04.16-.386.254-.764.257-1.105.002-.342-.09-.674-.334-.919-.245-.245-.577-.336-.92-.334-.34.003-.718.098-1.105.257Zm.254.616c.338-.14.629-.205.856-.206.226-.002.362.058.443.139.08.08.14.217.139.442-.002.228-.067.518-.207.857a5.2 5.2 0 0 1-.366.713 9.686 9.686 0 0 0-1.578-1.578c.247-.151.487-.274.713-.367Zm-3.819 1.232c-.14-.339-.204-.63-.206-.857-.002-.225.058-.362.139-.442.08-.081.217-.141.442-.14.228.002.518.068.857.207.225.093.465.216.713.367a9.7 9.7 0 0 0-1.578 1.578 5.188 5.188 0 0 1-.367-.713Zm1.583.35c.31-.31.628-.585.942-.82.314.235.633.51.943.82.31.311.586.63.822.943a8.89 8.89 0 0 1-.822.943c-.31.31-.629.586-.943.821a8.871 8.871 0 0 1-.942-.82 8.89 8.89 0 0 1-.822-.944 8.87 8.87 0 0 1 .822-.942Zm-1.583 2.237c.093-.226.216-.466.367-.713a9.705 9.705 0 0 0 1.578 1.578 5.19 5.19 0 0 1-.713.366c-.339.14-.63.205-.857.207-.225.002-.362-.058-.442-.139-.081-.08-.14-.217-.14-.443.003-.227.068-.518.207-.856Zm3.819 1.231a5.182 5.182 0 0 1-.713-.366 9.706 9.706 0 0 0 1.578-1.578c.15.247.273.487.366.713.14.338.205.629.207.856.002.226-.058.362-.139.443-.08.08-.217.14-.443.139-.227-.002-.518-.067-.856-.207Z" data-follow-fill="#fff"/></svg>