<svg xmlns="http://www.w3.org/2000/svg" fill="none" viewBox="0 0 24 24"><path fill="#000000" d="M1.997 4a1 1 0 0 1 1-1h18a1 1 0 0 1 1 1v6a1 1 0 0 1-1 1h-18a1 1 0 0 1-1-1V4Zm3.75 2a.75.75 0 0 0-1.5 0v2a.75.75 0 0 0 1.5 0V6Zm2.25-.75a.75.75 0 0 0-.75.75v2a.75.75 0 0 0 1.5 0V6a.75.75 0 0 0-.75-.75ZM12.247 7c0 .414.336.75.75.75h6a.75.75 0 0 0 0-1.5h-6a.75.75 0 0 0-.75.75Zm-10.25 7a1 1 0 0 1 1-1h18a1 1 0 0 1 1 1v6a1 1 0 0 1-1 1h-18a1 1 0 0 1-1-1v-6Zm3.75 2a.75.75 0 0 0-1.5 0v2a.75.75 0 0 0 1.5 0v-2Zm2.25-.75a.75.75 0 0 0-.75.75v2a.75.75 0 0 0 1.5 0v-2a.75.75 0 0 0-.75-.75Zm4.25 1.75c0 .414.336.75.75.75h6a.75.75 0 0 0 0-1.5h-6a.75.75 0 0 0-.75.75Z"/></svg>
