<svg xmlns="http://www.w3.org/2000/svg" fill="none" viewBox="0 0 24 24"><g clip-path="url(#a)"><rect fill="color(display-p3 1 .6021 .3625)" rx="4" height="24" width="24"/><rect fill="color(display-p3 1 .8078 .2235)" rx="4" height="24" width="24"/><path fill="#fff" d="M14.433 5.912a1.885 1.885 0 0 1 1.37 3.18l.596 1.029a1.885 1.885 0 1 1 .18 3.73l-.648 1.12a1.885 1.885 0 1 1-3.202 1.95h-1.506A1.885 1.885 0 1 1 8.1 14.874l-.632-1.094a1.885 1.885 0 1 1 .162-3.558l.604-1.046a1.885 1.885 0 1 1 3.12-1.815h1.245a1.885 1.885 0 0 1 1.834-1.449Zm-3.135 7.863.002.002.041.016-.606.88c.393.332.648.823.668 1.373h1.146a1.88 1.88 0 0 1 .607-1.318l-.541-.889.005-.001a1.914 1.914 0 0 1-1.322-.063Zm2.038-.35v-.001l.032-.03.551.905a1.882 1.882 0 0 1 1.324.113l.493-.853a1.888 1.888 0 0 1-.806-1.112l-1.02.005.002-.012a1.918 1.918 0 0 1-.576.984Zm-3.155-.956-1.436.008a1.885 1.885 0 0 1-.52.864l.591 1.024a1.879 1.879 0 0 1 1.129-.088l.677-.982.003.003a1.915 1.915 0 0 1-.444-.83Zm1.862-1.708a1.246 1.246 0 1 0 .001 2.49 1.246 1.246 0 0 0 0-2.49ZM8.995 9.609l-.648 1.122c.212.243.364.541.43.87l1.393-.007-.002.007a1.917 1.917 0 0 1 .51-.942L10.04 9.61a1.884 1.884 0 0 1-1.045 0Zm6.076-.037a1.88 1.88 0 0 1-.888.095l-.721 1.047a1.915 1.915 0 0 1 .452.862l.999-.005c.095-.438.343-.82.685-1.087l-.527-.912ZM12.6 8.236h-1.247a1.884 1.884 0 0 1-.551.943l.616 1.013-.008.002a1.914 1.914 0 0 1 1.35.032l-.02-.008.606-.88c-.368-.26-.639-.649-.746-1.102Z" data-follow-fill="#fff"/></g><defs><clipPath id="a"><rect fill="#fff" rx="4" height="24" width="24" data-follow-fill="#fff"/></clipPath></defs></svg>