<svg xmlns="http://www.w3.org/2000/svg" fill="none" viewBox="0 0 24 24"><path fill="color(display-p3 .8627 .8667 .8824)" d="M0 4a4 4 0 0 1 4-4h16a4 4 0 0 1 4 4v16a4 4 0 0 1-4 4H4a4 4 0 0 1-4-4V4Z"/><path fill="#fff" d="M8.627 7.171c-.127.636-.155 1.431-.045 2.426-.112-.047-.303.01-.168.617.134.606.477 1.028.631 1.164.084.444.457 1.484 1.277 2.09.519.42.28 2.006-1.501 2.384-.273.059-.534.108-.78.155-1.362.259-2.305.438-2.685 1.543-.36 1.043-.617 1.781-.701 2.02h14.69c-.084-.239-.342-.977-.701-2.02-.38-1.105-1.323-1.284-2.685-1.543-.246-.047-.507-.097-.78-.155-1.781-.378-2.02-1.963-1.5-2.384.819-.606 1.192-1.646 1.276-2.09.154-.136.496-.558.631-1.164.135-.606-.056-.664-.168-.617.486-4.407-1.72-4.913-3.418-4.87-.41-.01-.849.011-1.272.112-.896-.015-1.41-.26-1.572-.409-.551.542-.584 2.01-.529 2.741Z" data-follow-fill="#fff"/></svg>