<svg xmlns="http://www.w3.org/2000/svg" fill="none" viewBox="0 0 24 24"><g clip-path="url(#a)"><rect fill="color(display-p3 1 .6021 .3625)" rx="4" height="24" width="24"/><rect fill="color(display-p3 1 .6039 .3608)" rx="4" height="24" width="24"/><path fill="#fff" d="M6.57 9.172c0-1.494 1.235-2.705 2.76-2.705 1.525 0 2.76 1.21 2.76 2.705 0 1.493-1.236 2.704-2.76 2.704-1.525 0-2.76-1.21-2.76-2.704Zm3.794 7.458v-.186c0-1.38.718-2.591 1.802-3.305a3.61 3.61 0 0 0-1.57-.36H8.295c-1.97 0-3.566 1.563-3.566 3.492v.226c0 .789 1.596.789 3.566.789h2.2a1.592 1.592 0 0 1-.131-.656Zm4.9-8.325c-1.265 0-2.29 1.005-2.29 2.245 0 1.24 1.025 2.245 2.29 2.245 1.265 0 2.291-1.005 2.291-2.245 0-1.24-1.025-2.245-2.29-2.245Zm0 0c-1.265 0-2.29 1.005-2.29 2.245 0 1.24 1.025 2.245 2.29 2.245 1.265 0 2.291-1.005 2.291-2.245 0-1.24-1.025-2.245-2.29-2.245Zm-.858 5.239c-1.635 0-2.96 1.298-2.96 2.9v.186c0 .655 1.325.655 2.96.655h1.91c1.634 0 2.958-.024 2.958-.655v-.186c0-1.602-1.324-2.9-2.958-2.9h-1.91Z" data-follow-fill="#fff"/></g><defs><clipPath id="a"><rect fill="#fff" rx="4" height="24" width="24" data-follow-fill="#fff"/></clipPath></defs></svg>