<svg xmlns="http://www.w3.org/2000/svg" fill="none" viewBox="0 0 24 24"><path fill="color(display-p3 .0824 .0941 .1137)" d="M9.75 3.75c.25 0 .32 0 .373.006a1.25 1.25 0 0 1 1.121 1.121c.005.052.006.123.006.373v.037c0 .196 0 .347.013.483a2.75 2.75 0 0 0 2.467 2.467c.136.013.287.013.483.013H17c.964 0 1.612.002 2.095.067.461.062.659.169.789.3.13.13.237.327.3.788.064.483.066 1.131.066 2.095V17c0 .964-.002 1.612-.067 2.095-.062.461-.169.659-.3.789-.13.13-.327.238-.788.3-.483.064-1.131.066-2.095.066H7c-.964 0-1.612-.002-2.095-.067-.461-.061-.659-.169-.789-.3-.13-.13-.237-.327-.3-.788-.064-.483-.066-1.131-.066-2.095V7c0-.964.002-1.612.067-2.095.062-.461.169-.659.3-.789.13-.13.327-.237.788-.3C5.388 3.753 6.036 3.75 7 3.75h2.75Zm.52-1.487c-.136-.013-.287-.013-.483-.013H6.948c-.898 0-1.648 0-2.242.08-.628.084-1.195.27-1.65.725-.456.456-.642 1.023-.726 1.65-.08.595-.08 1.345-.08 2.243v10.104c0 .899 0 1.648.08 2.242.084.628.27 1.195.725 1.65.456.456 1.023.642 1.65.726.595.08 1.345.08 2.243.08h10.104c.899 0 1.648 0 2.242-.08.628-.084 1.195-.27 1.65-.725.456-.456.642-1.023.726-1.65.08-.595.08-1.345.08-2.243v-5.604c0-.899 0-1.648-.08-2.242-.084-.628-.27-1.195-.726-1.65a2.295 2.295 0 0 0-.794-.516v-.87c0-.156 0-.277-.008-.386a2.75 2.75 0 0 0-2.526-2.526 5.125 5.125 0 0 0-.387-.008h-5.108a2.747 2.747 0 0 0-1.851-.987Zm2.469 2.487H17.2c.2 0 .257 0 .298.004a1.25 1.25 0 0 1 1.148 1.148c.003.041.004.098.004.298v.574c-.465-.024-.998-.024-1.598-.024H14.25c-.25 0-.32 0-.373-.006a1.25 1.25 0 0 1-1.121-1.121 4.696 4.696 0 0 1-.006-.373v-.037c0-.187 0-.333-.011-.463ZM12.25 10a.75.75 0 0 1 .75-.75h5a.75.75 0 0 1 0 1.5h-5a.75.75 0 0 1-.75-.75Z"/></svg>