<svg xmlns="http://www.w3.org/2000/svg" fill="none" viewBox="0 0 24 24"><g clip-path="url(#a)"><rect fill="color(display-p3 1 .6021 .3625)" rx="4" height="24" width="24"/><rect fill="color(display-p3 .349 .8471 .6471)" rx="4" height="24" width="24"/><path fill="#fff" d="M13.534 5.954v11.795h.936V8.768l3.036.995c.269.162.44.43.464.725l.003.074v7.187H19V19H5V17.75h1.022v-9.57c0-.329.182-.633.482-.81l5.462-2.222c.682-.397 1.567.059 1.567.808v-.001Zm-2.256 5.554L8.28 12.66v1.354l2.997-1.153v-1.352h.001Zm0-2.959L8.28 9.735v1.36l2.996-1.188V8.548h.002v.001Z" data-follow-fill="#fff"/></g><defs><clipPath id="a"><rect fill="#fff" rx="4" height="24" width="24" data-follow-fill="#fff"/></clipPath></defs></svg>