<svg xmlns="http://www.w3.org/2000/svg" fill="none" viewBox="0 0 24 24"><g clip-path="url(#a)"><rect fill="color(display-p3 1 .6021 .3625)" rx="4" height="24" width="24"/><rect fill="color(display-p3 .4863 .5569 .702)" rx="4" height="24" width="24"/><path fill="#fff" d="M17.091 6.21c0-.28.233-.559.512-.605.418-.093.744.186.697.604v10.187A2.6 2.6 0 0 1 15.696 19h-8.28c-.976 0-1.72-.79-1.72-1.721V6.907C5.695 5.837 6.578 5 7.601 5h6.373c1.07 0 1.907.884 1.906 1.907v5.674a2.5 2.5 0 0 1-2.511 2.512H7.463a.466.466 0 0 0-.465.465v1.721c0 .233.186.465.465.465h8.28a1.35 1.35 0 0 0 1.348-1.348V6.209Zm-6.465 3.534v.419h.604c-.046.465-.14.93-.279 1.303-.186.372-.418.697-.744.93.14.093.28.186.419.326.372-.419.604-.791.744-1.163.14-.373.186-.838.232-1.442h.745v2.604h.418V10.07h.698v-.419h-.698V8.023h.559v-.372h-.698v-.046h-1.954v.511h.558v1.628h-.604Zm-2.093-2v.325h.697c0 .28-.093.558-.186.791a3.569 3.569 0 0 1-.325.605c-.14.186-.28.325-.466.511.047.07.093.128.14.186.046.058.093.117.14.186.063-.085.127-.16.187-.23.07-.084.134-.16.185-.235v2.372h.418v-.883h.605v.418h.418V9.232H9.323c.12-.28.206-.628.287-.957l.039-.159h.744v-.372h-1.86ZM8.207 17h6.512a.586.586 0 0 0 .604-.604.616.616 0 0 0-.604-.605H8.207a.615.615 0 0 0-.605.605c0 .325.28.604.605.604Zm1.721-7.442h-.605v1.395h.605V9.558Zm2.419-1.581h-.745v1.628h.745V7.977Z" clip-rule="evenodd" fill-rule="evenodd" data-follow-fill="#fff"/></g><defs><clipPath id="a"><rect fill="#fff" rx="4" height="24" width="24" data-follow-fill="#fff"/></clipPath></defs></svg>