<svg xmlns="http://www.w3.org/2000/svg" fill="none" viewBox="0 0 24 24"><g clip-path="url(#a)"><rect fill="color(display-p3 1 .6021 .3625)" rx="4" height="24" width="24"/><rect fill="color(display-p3 .349 .8471 .6471)" rx="4" height="24" width="24"/><path fill="#fff" d="M18.583 8.433 12.3 6.083a.867.867 0 0 0-.6 0l-6.283 2.35a.624.624 0 0 0 0 1.184l6.283 2.366a.867.867 0 0 0 .6 0l6.283-2.35a.643.643 0 0 0 0-1.2Z" data-follow-fill="#fff"/><path fill="#fff" d="m8.183 11.7 3.534 1.217a.75.75 0 0 0 .533 0l3.567-1.217a.5.5 0 0 1 .683.467v3.183c0 .283-.183.5-.417.667-.583.416-1.766 1.033-4.083 1.033s-3.65-.633-4.05-.983c-.217-.2-.433-.384-.433-.684v-3.216a.5.5 0 0 1 .666-.467ZM16.983 9.117h1v5.9h-1v-5.9Z" data-follow-fill="#fff"/></g><defs><clipPath id="a"><rect fill="#fff" rx="4" height="24" width="24" data-follow-fill="#fff"/></clipPath></defs></svg>