<svg xmlns="http://www.w3.org/2000/svg" fill="none" viewBox="0 0 24 24"><g clip-path="url(#a)"><rect fill="color(display-p3 1 .6021 .3625)" rx="4" height="24" width="24"/><rect fill="color(display-p3 .3569 .4 1)" rx="4" height="24" width="24"/><path fill="#fff" d="m7.462 16.813 2.584-2.43a.866.866 0 0 1 .554-.182h4.77a.634.634 0 0 0 .584-.638V6.577c0-.334-.277-.577-.616-.577H5.615A.613.613 0 0 0 5 6.607v6.987c0 .334.277.607.615.607h1.2v2.339c0 .303.154.425.339.425.123 0 .215-.06.308-.152Z" data-follow-fill="#fff"/><path fill="#fff" d="M18.046 16.813a.9.9 0 0 0 .923-.911H19v-5.74a.9.9 0 0 0-.923-.912h-1.17c-.276 0-.46.243-.46.516 0 .274.245.486.522.456h.985v5.528h-.862a.9.9 0 0 0-.923.911v.911l-1.477-1.366c-.307-.243-.677-.395-1.046-.395h-2.092a.52.52 0 0 0-.462.455c0 .274.185.486.462.517h2.123c.123.03.246.06.37.152l2.03 1.852a.73.73 0 0 0 .492.213c.062 0 .154 0 .216-.03a.595.595 0 0 0 .4-.638v-1.519h.861Z" data-follow-fill="#fff"/></g><defs><clipPath id="a"><rect fill="#fff" rx="4" height="24" width="24" data-follow-fill="#fff"/></clipPath></defs></svg>