<svg xmlns="http://www.w3.org/2000/svg" fill="none" viewBox="0 0 24 24"><rect fill="url(#a)" rx="4" height="24" width="24"/><path fill="#fff" d="M16.737 13.298v1.298h-.432a.865.865 0 0 0-.866.866v2.163a.865.865 0 0 0 .866.865h2.163a.865.865 0 0 0 .865-.865v-2.163a.865.865 0 0 0-.865-.866h-.433v-2.163a.865.865 0 0 0-.865-.865h-4.327V10.27h.866a.865.865 0 0 0 .865-.866V6.376a.865.865 0 0 0-.865-.866H10.68a.866.866 0 0 0-.865.866v3.028a.865.865 0 0 0 .865.866h.865v1.298H7.22a.866.866 0 0 0-.866.865v2.163h-.432a.865.865 0 0 0-.866.866v2.163a.865.865 0 0 0 .866.865h2.163a.865.865 0 0 0 .865-.865v-2.163a.865.865 0 0 0-.865-.866h-.433v-1.298a.433.433 0 0 1 .433-.432h3.461v1.73h-.432a.865.865 0 0 0-.866.866v2.163a.865.865 0 0 0 .866.865h2.163a.865.865 0 0 0 .865-.865v-2.163a.865.865 0 0 0-.865-.866h-.433v-1.73h3.462a.433.433 0 0 1 .432.432ZM11.38 6.841a.432.432 0 0 1 .165-.033h1.298a.433.433 0 0 1 .433.433v1.298a.433.433 0 0 1-.433.433h-1.298a.432.432 0 0 1-.432-.433V7.24a.433.433 0 0 1 .267-.4Z" data-follow-fill="#fff"/><defs><linearGradient gradientUnits="userSpaceOnUse" y2="24" x2="24" y1="0" x1="0" id="a"><stop stop-color="color(display-p3 0 .3779 1)"/><stop stop-color="color(display-p3 0 .5713 .9849)" offset="1"/></linearGradient></defs></svg>