<svg xmlns="http://www.w3.org/2000/svg" fill="none" viewBox="0 0 24 24"><g clip-path="url(#a)"><rect fill="color(display-p3 1 .6021 .3625)" rx="4" height="24" width="24"/><rect fill="color(display-p3 1 .6039 .3608)" rx="4" height="24" width="24"/><path fill="#fff" d="M17.863 6.4a.69.69 0 0 0-.7.7v.787h-.788c-.175-.437-.613-.787-1.137-.787H6.575c-.7 0-1.225.525-1.225 1.225v7.35c0 .7.525 1.225 1.225 1.225h8.575c.525 0 .963-.35 1.138-.788h.787v.875c0 .438.35.7.7.7s.7-.35.7-.7V7.1c.175-.35-.175-.7-.613-.7Zm-4.813 6.3c.262.087.35.437.262.7-.175.175-.524.262-.7.175l-1.575-.788v1.488c0 .262-.262.525-.525.525-.262 0-.524-.263-.524-.525v-1.488l-1.488.788c-.262.087-.525 0-.7-.263-.087-.262 0-.525.263-.7l1.4-.612-1.4-.7c-.263-.088-.35-.438-.175-.7.087-.175.35-.263.612-.175l1.575.787V9.725c0-.263.263-.525.525-.525.263 0 .525.262.525.525v1.487l1.575-.787c.263-.088.525 0 .7.262.088.263 0 .525-.263.7L11.65 12l1.4.7Zm4.113 1.925h-.788v-5.25h.788v5.25Z" data-follow-fill="#fff"/></g><defs><clipPath id="a"><rect fill="#fff" rx="4" height="24" width="24" data-follow-fill="#fff"/></clipPath></defs></svg>