<svg xmlns="http://www.w3.org/2000/svg" fill="none" viewBox="0 0 24 24"><path fill="#000000" d="M10.75 3v17c0 .138.112.25.25.25h8a.25.25 0 0 0 .25-.25V3a.25.25 0 0 0-.25-.25h-8a.25.25 0 0 0-.25.25Zm-1.5 7.268V3c0-.966.784-1.75 1.75-1.75h8c.966 0 1.75.784 1.75 1.75v17c0 .085-.006.168-.018.25H22v1.5H2v-1.5h1.268A1.765 1.765 0 0 1 3.25 20v-8c0-.966.783-1.75 1.75-1.75h4c.085 0 .168.006.25.018Zm0 1.732a.25.25 0 0 0-.25-.25H5a.25.25 0 0 0-.25.25v8c0 .138.112.25.25.25h4a.25.25 0 0 0 .25-.25v-8ZM18 17.25h-6v-1.5h6v1.5Zm-12.75 0H9v-1.5H5.25v1.5ZM18 12.75h-6v-1.5h6v1.5Zm-6-4.5h6v-1.5h-6v1.5Z"/></svg>
