<svg xmlns="http://www.w3.org/2000/svg" fill="none" viewBox="0 0 24 24"><path fill="color(display-p3 .0471 .6824 .3922)" d="M6 1h7.5L21 8.5v11a3 3 0 0 1-3 3H6a3 3 0 0 1-3-3V4a3 3 0 0 1 3-3Z"/><path fill="color(display-p3 .451 .8314 .6588)" d="M13.5 1 21 8.5h-5.5a2 2 0 0 1-2-2V1Z"/><path fill="#fff" d="m6.352 18.395 2.372-3.675-2.172-3.655H8.3l1.186 2.337c.11.22.185.386.225.495h.015c.078-.177.16-.349.246-.516l1.268-2.316h1.603l-2.227 3.634 2.284 3.696h-1.708l-1.37-2.564a2.14 2.14 0 0 1-.164-.343h-.02a1.703 1.703 0 0 1-.16.333l-1.408 2.575H6.352Z" data-follow-fill="#fff"/></svg>