<svg xmlns="http://www.w3.org/2000/svg" fill="none" viewBox="0 0 24 24"><path fill="color(display-p3 .2549 .5137 .9686)" d="M6 1h7.5L21 8.5v11a3 3 0 0 1-3 3H6a3 3 0 0 1-3-3V4a3 3 0 0 1 3-3Z"/><path fill="color(display-p3 .5922 .7373 .9961)" d="M13.5 1 21 8.5h-5.5a2 2 0 0 1-2-2V1Z"/><path fill="#fff" d="m12.35 16.754.475.422-.398.448-.411-.365a1.498 1.498 0 1 1 .335-.505Zm-5.885-5.053V13.5h1.798v-1.798H6.465Zm-.6-.599h2.997v2.996H5.866v-2.996Zm.6 4.195v1.798h1.798v-1.798H6.465Zm-.6-.6h2.997v2.997H5.866v-2.996Zm4.196-2.996V13.5h1.797v-1.798h-1.797Zm-.6-.599h2.997v2.996H9.46v-2.996Zm1.499 5.993a.899.899 0 1 0 0-1.797.899.899 0 0 0 0 1.797Z" data-follow-fill="#fff"/></svg>