<svg xmlns="http://www.w3.org/2000/svg" fill="none" viewBox="0 0 24 24"><path fill="color(display-p3 .2588 .2588 .2588)" d="M6 1h7.5L21 8.5v11a3 3 0 0 1-3 3H6a3 3 0 0 1-3-3V4a3 3 0 0 1 3-3Z"/><path fill="#fff" d="M7.018 12c-.67 0-1.192.3-1.534.747-.332.434-.484.991-.484 1.526 0 .534.152 1.091.484 1.526.342.447.863.747 1.534.747 1.304 0 2.229-.816 2.982-1.607.753.791 1.678 1.607 2.982 1.607.67 0 1.192-.3 1.534-.747.332-.435.484-.992.484-1.526 0-.535-.152-1.092-.484-1.526A1.875 1.875 0 0 0 12.982 12c-1.304 0-2.229.815-2.982 1.607C9.247 12.815 8.322 12 7.018 12Zm0 3.636a.968.968 0 0 1-.812-.39c-.188-.247-.297-.599-.297-.973 0-.375.109-.727.297-.974.18-.235.44-.39.812-.39.927 0 1.612.579 2.36 1.364-.748.785-1.433 1.363-2.36 1.363Zm5.964 0c-.927 0-1.612-.578-2.36-1.363.748-.785 1.433-1.364 2.36-1.364.372 0 .632.155.812.39.188.247.297.6.297.974s-.108.726-.297.974a.968.968 0 0 1-.812.39Z" data-follow-fill="#fff"/><path fill="color(display-p3 .3765 .3765 .3765)" d="M13.5 1 21 8.5h-5.5a2 2 0 0 1-2-2V1Z"/></svg>