<svg xmlns="http://www.w3.org/2000/svg" fill="none" viewBox="0 0 24 24"><path fill="color(display-p3 .0471 .6824 .3922)" d="M6 1h7.5L21 8.5v11a3 3 0 0 1-3 3H6a3 3 0 0 1-3-3V4a3 3 0 0 1 3-3Z"/><path fill="color(display-p3 .451 .8314 .6588)" d="M13.5 1 21 8.5h-5.5a2 2 0 0 1-2-2V1Z"/><path fill="#fff" d="M12.4 11.6v1.1H6.6v-1.1h5.8ZM6 12.7V18H13v-7H6V12.7Zm6.4 2.5h-1.1v-1.9h1.1v1.9Zm-1.7 0H8.3v-1.9h2.4v1.9Zm-3 0H6.6v-1.9h1.1v1.9Zm0 .6v1.6H6.6v-1.6h1.1Zm.6 1.6v-1.6h2.4v1.6H8.3Zm4.1 0h-1.1v-1.6h1.1v1.6Z" data-follow-fill="#fff"/></svg>