<svg xmlns="http://www.w3.org/2000/svg" fill="none" viewBox="0 0 24 24"><path fill="color(display-p3 .9922 .7412 .2039)" d="M6 1h7.5L21 8.5v11a3 3 0 0 1-3 3H6a3 3 0 0 1-3-3V4a3 3 0 0 1 3-3Z"/><path fill="color(display-p3 .9961 .8588 .5647)" d="M13.5 1 21 8.5h-5.5a2 2 0 0 1-2-2V1Z"/><path fill="#fff" d="M11.496 12.5V15h-2.5v-2.5h2.5Zm.625 0h1.875V15h-1.875v-2.5Zm-.625 5h-2.5v-1.875h2.5V17.5Zm.625 0v-1.875h1.875V17.5h-1.875Zm-.625-7.5v1.875h-2.5V10h2.5Zm.625 0h1.875v1.875h-1.875V10Zm-3.75 2.5V15H6.496v-2.5h1.875Zm0 5H6.496v-1.875h1.875V17.5Zm0-7.5v1.875H6.496V10h1.875Z" data-follow-fill="#fff"/></svg>