<svg xmlns="http://www.w3.org/2000/svg" fill="none" viewBox="0 0 24 24"><path fill="#1ECDA4" d="M6 1h7.5L21 8.5v11a3 3 0 0 1-3 3H6a3 3 0 0 1-3-3V4a3 3 0 0 1 3-3Z"/><path fill="#75E7CA" d="M13.5 1 21 8.5h-5.5a2 2 0 0 1-2-2V1Z"/><path fill="#fff" d="M8.35 10.6h3.3c.313 0 .571 0 .782.017.22.018.422.057.613.154.294.15.534.39.684.684.097.191.136.394.154.613.017.21.017.47.017.782v3.3c0 .313 0 .571-.017.782-.018.22-.057.422-.154.613-.15.294-.39.534-.684.684-.191.097-.393.136-.613.154-.21.017-.47.017-.782.017H8.014c-.105 0-.209 0-.292-.007l-.01-.001a4.147 4.147 0 0 1-.144-.01 1.601 1.601 0 0 1-.613-.153 1.566 1.566 0 0 1-.684-.684 1.602 1.602 0 0 1-.154-.613c-.017-.21-.017-.47-.017-.782v-3.3c0-.312 0-.571.017-.782.018-.22.057-.422.154-.612.15-.295.39-.535.684-.685.191-.097.394-.136.613-.154.21-.017.47-.017.782-.017Zm.017 7h-.123l3.154-3.155c.08-.079.124-.123.158-.152.033.03.078.073.157.152l1.387 1.387v.301c0 .334 0 .56-.015.734a.827.827 0 0 1-.069.314.767.767 0 0 1-.335.335.827.827 0 0 1-.314.07c-.174.014-.4.014-.734.014H8.367Zm4.733-2.899-.83-.83c-.07-.07-.138-.138-.2-.19a.798.798 0 0 0-.27-.159.788.788 0 0 0-.488 0 .798.798 0 0 0-.27.159c-.063.052-.131.12-.2.19l-3.326 3.326a3.537 3.537 0 0 0-.202.212.909.909 0 0 0-.056.073.767.767 0 0 1-.274-.3.83.83 0 0 1-.07-.315 10.05 10.05 0 0 1-.014-.734v-3.266c0-.334 0-.56.015-.734a.83.83 0 0 1 .069-.314.766.766 0 0 1 .335-.335.827.827 0 0 1 .314-.07c.174-.014.4-.014.734-.014h3.266c.334 0 .56 0 .734.015.17.014.255.039.314.069.145.073.262.19.335.335.03.059.056.144.07.314.014.175.014.4.014.734V14.7Zm-4.461-1.94a.378.378 0 1 0 0 .756.378.378 0 0 0 0-.756Zm-1.178.378a1.178 1.178 0 1 1 2.356 0 1.178 1.178 0 0 1-2.356 0Z" clip-rule="evenodd" fill-rule="evenodd" data-follow-fill="#fff"/></svg>
