<svg xmlns="http://www.w3.org/2000/svg" fill="none" viewBox="0 0 24 24"><path fill="color(display-p3 .349 .8157 .7098)" d="M6 1h7.5L21 8.5v11a3 3 0 0 1-3 3H6a3 3 0 0 1-3-3V4a3 3 0 0 1 3-3Z"/><path fill="color(display-p3 .6157 .9059 .8353)" d="M13.5 1 21 8.5h-5.5a2 2 0 0 1-2-2V1Z"/><path fill="#fff" d="M9.647 10.015a.749.749 0 0 0-.302 0c-.115.024-.218.082-.3.128l-.022.012-2.41 1.34c-.153.085-.23.127-.256.183a.187.187 0 0 0 0 .155c.025.056.102.1.254.185l2.738 1.54c.054.03.08.045.109.051a.189.189 0 0 0 .076 0 .413.413 0 0 0 .11-.051l2.737-1.54c.152-.086.229-.129.254-.185a.187.187 0 0 0 0-.155c-.026-.056-.102-.098-.255-.184l-2.41-1.339-.023-.012c-.082-.046-.185-.104-.3-.128ZM13.245 12.905c0-.168 0-.252-.036-.301a.187.187 0 0 0-.131-.077c-.06-.007-.134.035-.28.117l-2.774 1.56a.417.417 0 0 0-.104.07.188.188 0 0 0-.04.067c-.009.029-.009.06-.009.125v3.065c0 .168 0 .252.035.301.031.043.078.07.13.077.06.007.134-.034.28-.115l2.429-1.349.023-.013c.087-.047.196-.108.28-.198a.748.748 0 0 0 .16-.273c.039-.118.038-.242.038-.341v-.027l-.001-2.688ZM8.676 17.794c.146.081.22.122.28.115a.187.187 0 0 0 .13-.077c.035-.05.035-.133.035-.3v-3.066c0-.064 0-.096-.01-.125a.188.188 0 0 0-.039-.068.417.417 0 0 0-.104-.069l-2.773-1.56c-.147-.082-.22-.124-.28-.117a.187.187 0 0 0-.132.077c-.035.049-.035.133-.035.3l-.002 2.689v.027c0 .099 0 .223.038.34a.75.75 0 0 0 .16.274c.084.09.193.15.28.198l.024.013 2.428 1.349Z" data-follow-fill="#fff"/></svg>