<svg xmlns="http://www.w3.org/2000/svg" fill="none" viewBox="0 0 24 24"><path fill="color(display-p3 .7804 .8118 .851)" d="M6 1h7.5L21 8.5v11a3 3 0 0 1-3 3H6a3 3 0 0 1-3-3V4a3 3 0 0 1 3-3Z"/><path fill="color(display-p3 .8745 .898 .9176)" d="M13.5 1 21 8.5h-5.5a2 2 0 0 1-2-2V1Z"/><path fill="#fff" d="M9.052 13.875a.226.226 0 0 0-.226-.226H6.862a.226.226 0 1 0 0 .452h1.964a.226.226 0 0 0 .226-.226Zm-2.857 3.24a.046.046 0 0 1-.013-.018v-5.414c0-.034-.058-.302.302-.302h4.684c.298 0 .302.122.302.302v1.51h.453l-.008-1.763a.507.507 0 0 0-.51-.503H6.239a.507.507 0 0 0-.51.503v5.642c0 .277.228.503.51.503h2.814v-.453h-2.86c.004 0 .006-.003.002-.006Zm.667-2.26a.228.228 0 0 0-.226.228c0 .126.102.228.226.228h.905a.228.228 0 0 0 0-.457h-.905Zm4.065-1.035c-1.052 0-1.904.841-1.904 1.878s.852 1.878 1.904 1.878c1.051 0 1.903-.841 1.903-1.878s-.852-1.878-1.903-1.878Zm0 3.278c-.783 0-1.42-.628-1.42-1.4 0-.773.637-1.402 1.42-1.402.782 0 1.419.629 1.419 1.401 0 .773-.637 1.4-1.42 1.4Zm.533-1.408h-.447v-.715c0-.122-.1-.22-.224-.22s-.224.098-.224.22v.937c0 .122.1.22.224.22h.67c.125 0 .225-.099.225-.22 0-.123-.1-.222-.224-.222Zm-1.953-3.024a.227.227 0 0 0-.228-.226H6.865a.227.227 0 0 0-.228.226c0 .125.102.226.228.226H9.28a.227.227 0 0 0 .228-.226Z" data-follow-fill="#fff"/></svg>