<svg xmlns="http://www.w3.org/2000/svg" fill="none" viewBox="0 0 24 24"><path fill="color(display-p3 .9137 .2824 .2824)" d="M6 1h7.5L21 8.5v11a3 3 0 0 1-3 3H6a3 3 0 0 1-3-3V4a3 3 0 0 1 3-3Z"/><path fill="color(display-p3 .949 .5686 .5686)" d="M13.5 1 21 8.5h-5.5a2 2 0 0 1-2-2V1Z"/><path fill="#fff" d="M14.611 16.472a3.544 3.544 0 0 1-2.055-.833c-1.14.25-2.223.611-3.306 1.056C8.389 18.222 7.583 19 6.889 19c-.139 0-.306-.028-.417-.111a.819.819 0 0 1-.472-.75c0-.25.056-.944 2.694-2.083a19.772 19.772 0 0 0 1.473-3.445c-.334-.666-1.056-2.305-.556-3.139.167-.305.5-.472.861-.444.278 0 .556.139.722.361.362.5.334 1.556-.138 3.111a8.374 8.374 0 0 0 1.722 2.222c.583-.11 1.166-.194 1.75-.194 1.305.028 1.5.639 1.472 1 0 .944-.917.944-1.389.944Zm-7.778 1.723.084-.028c.389-.14.694-.417.916-.778-.416.167-.75.445-1 .806Zm3.695-8.334h-.084c-.027 0-.083 0-.11.028-.112.472-.028.972.166 1.417.167-.472.167-.972.028-1.445Zm.194 4.028-.028.056-.027-.028c-.25.639-.528 1.278-.834 1.889l.056-.028v.056a16.165 16.165 0 0 1 1.889-.556l-.028-.028h.083a8.516 8.516 0 0 1-1.11-1.361Zm3.778 1.472c-.25 0-.472 0-.722.056.278.139.555.194.833.222.195.028.389 0 .556-.055 0-.084-.111-.223-.667-.223Z" data-follow-fill="#fff"/></svg>