<svg xmlns="http://www.w3.org/2000/svg" fill="none" viewBox="0 0 24 24"><path fill="color(display-p3 1 .8118 .3608)" d="M2 6a2 2 0 0 1 2-2h6a2 2 0 0 1 2 2v1.5h8a2 2 0 0 1 2 2V19a2 2 0 0 1-2 2H4a2 2 0 0 1-2-2V6Z"/><path fill="color(display-p3 .9765 .7098 .3216)" d="M12 6h7a1 1 0 0 1 1 1v.5h-8V6Z"/><path fill="color(display-p3 .9259 .616 .1575)" d="M11.628 11.544v2.175a.272.272 0 0 0 .396.242l.783-.402.781.402a.272.272 0 0 0 .397-.242v-2.175h.997v4.26h-4.713c-.274 0-.525.093-.725.25v-3.966c0-.3.243-.544.544-.544h1.54Zm.544 0h1.269v1.73l-.51-.262a.272.272 0 0 0-.249 0l-.51.262v-1.73ZM10.088 11C9.487 11 9 11.487 9 12.088v5.075c0 .6.487 1.087 1.088 1.087h5.437V11h-5.437Zm.18 5.348h4.623v1.268h-4.622a.634.634 0 0 1 0-1.268Z"/></svg>