<svg xmlns="http://www.w3.org/2000/svg" fill="none" viewBox="0 0 24 24"><path fill="#FDC64A" d="M2 6a2 2 0 0 1 2-2h6a2 2 0 0 1 2 2v1.5h8a2 2 0 0 1 2 2V19a2 2 0 0 1-2 2H4a2 2 0 0 1-2-2V6Z"/><path fill="#F6A741" d="M12 6h7a1 1 0 0 1 1 1v.5h-8V6Z"/><path fill="#F6A741" d="M8.138 10.816a.681.681 0 0 1 .646-.466h6.424c.293 0 .554.187.646.466l1.192 3.573h-10.1l1.192-3.573ZM17.046 15.063h-10.1v2.011c0 .377.306.682.682.682h8.736a.681.681 0 0 0 .682-.682v-2.011Zm-1.014 1.01v.673H14.02v-.673h2.012Z"/></svg>
