<svg xmlns="http://www.w3.org/2000/svg" fill="none" viewBox="0 0 24 24"><path fill="color(display-p3 1 .8118 .3608)" d="M2 6a2 2 0 0 1 2-2h6a2 2 0 0 1 2 2v1.5h8a2 2 0 0 1 2 2V19a2 2 0 0 1-2 2H4a2 2 0 0 1-2-2V6Z"/><path fill="color(display-p3 .9765 .7098 .3216)" d="M12 6h7a1 1 0 0 1 1 1v.5h-8V6Z"/><path fill="color(display-p3 .9259 .616 .1575)" d="m14.024 11-1.672 7.244h-.975L13.049 11h.975Zm.73 1.393L17 14.64l-2.246 2.246-.59-.591 1.654-1.655-1.655-1.655.591-.59Zm-4.508-.017.59.591-1.655 1.655 1.655 1.655-.59.59L8 14.623l2.246-2.246Z"/></svg>