<svg xmlns="http://www.w3.org/2000/svg" fill="none" viewBox="0 0 24 24"><path fill="color(display-p3 1 .8118 .3608)" d="M2 6a2 2 0 0 1 2-2h6a2 2 0 0 1 2 2v1.5h8a2 2 0 0 1 2 2V19a2 2 0 0 1-2 2H4a2 2 0 0 1-2-2V6Z"/><path fill="color(display-p3 .9765 .7098 .3216)" d="M12 6h7a1 1 0 0 1 1 1v.5h-8V6Z"/><path fill="color(display-p3 .9259 .616 .1575)" d="M11.901 10.015a.749.749 0 0 0-.302 0c-.115.024-.218.082-.3.128l-.022.012-2.41 1.34c-.153.085-.23.127-.256.183a.187.187 0 0 0 0 .155c.025.056.102.1.255.185l2.737 1.54c.054.03.08.045.109.051a.189.189 0 0 0 .076 0 .412.412 0 0 0 .11-.051l2.737-1.54c.152-.086.229-.129.254-.185a.187.187 0 0 0 0-.155c-.026-.056-.102-.098-.255-.184l-2.41-1.339-.023-.012c-.082-.046-.184-.104-.3-.128ZM15.499 12.905c0-.168 0-.252-.036-.301a.187.187 0 0 0-.131-.077c-.06-.007-.134.035-.28.117l-2.774 1.56a.415.415 0 0 0-.104.07.188.188 0 0 0-.04.067c-.009.029-.009.06-.009.125v3.065c0 .168 0 .252.035.301.031.043.079.07.13.077.06.007.134-.034.28-.115L15 16.445l.023-.013c.087-.047.196-.108.28-.198a.751.751 0 0 0 .16-.273c.039-.118.039-.242.038-.341v-.027l-.001-2.688ZM10.93 17.794c.146.081.22.122.28.115a.187.187 0 0 0 .13-.077c.035-.05.035-.133.035-.3v-3.066c0-.064 0-.096-.01-.125a.188.188 0 0 0-.039-.068.417.417 0 0 0-.104-.069l-2.773-1.56c-.147-.082-.22-.124-.28-.117a.187.187 0 0 0-.132.077c-.035.049-.035.133-.035.3L8 15.594v.027c0 .099 0 .223.038.34a.75.75 0 0 0 .16.274c.084.09.193.15.28.198l.024.013 2.428 1.349Z"/></svg>