<svg viewBox="0 0 25 24" fill="none" xmlns="http://www.w3.org/2000/svg">
<path d="M21.2095 2.87917C22.381 4.05074 22.381 5.95024 21.2095 7.12181C20.0379 8.29338 18.1384 8.29338 16.9668 7.12181C15.7952 5.95024 15.7952 4.05074 16.9668 2.87917C18.1384 1.7076 20.0379 1.7076 21.2095 2.87917Z" fill="#15181D" style="fill:#15181D;fill-opacity:1;"/>
<path fill-rule="evenodd" clip-rule="evenodd" d="M21.0881 10.806C21.0881 10.3972 21.0881 10.1928 21.0218 10.0771C20.9551 9.96103 20.8874 9.90374 20.7619 9.85722C20.6369 9.8109 20.3979 9.851 19.9199 9.93121C18.3795 10.1897 16.7413 9.72467 15.5526 8.53602C14.3639 7.34737 13.8989 5.70914 14.1574 4.16869C14.2376 3.69074 14.2777 3.45177 14.2314 3.32676C14.1849 3.20122 14.1276 3.13351 14.0115 3.06686C13.8959 3.00049 13.6914 3.00049 13.2826 3.00049H7.84684C7.04188 3.00048 6.3775 3.00047 5.83631 3.04468C5.27421 3.09061 4.75751 3.18917 4.27217 3.43646C3.51953 3.81996 2.9076 4.43188 2.52411 5.18453C2.27682 5.66986 2.17826 6.18657 2.13233 6.74866C2.08811 7.28985 2.08812 7.9542 2.08814 8.75916V16.2418C2.08812 17.0467 2.08811 17.7111 2.13233 18.2523C2.17826 18.8144 2.27682 19.3311 2.52411 19.8165C2.9076 20.5691 3.51953 21.181 4.27217 21.5645C4.75751 21.8118 5.27421 21.9104 5.83631 21.9563C6.3775 22.0005 7.04185 22.0005 7.84681 22.0005H15.3295C16.1344 22.0005 16.7988 22.0005 17.34 21.9563C17.9021 21.9104 18.4188 21.8118 18.9041 21.5645C19.6567 21.181 20.2687 20.5691 20.6522 19.8165C20.8995 19.3311 20.998 18.8144 21.0439 18.2523C21.0882 17.7111 21.0881 17.0468 21.0881 16.2418V10.806ZM6.08814 13.0005C6.08814 12.4482 6.53585 12.0005 7.08814 12.0005H15.0881C15.6404 12.0005 16.0881 12.4482 16.0881 13.0005C16.0881 13.5528 15.6404 14.0005 15.0881 14.0005H7.08814C6.53585 14.0005 6.08814 13.5528 6.08814 13.0005ZM6.08814 17.0005C6.08814 16.4482 6.53585 16.0005 7.08814 16.0005H13.0881C13.6404 16.0005 14.0881 16.4482 14.0881 17.0005C14.0881 17.5528 13.6404 18.0005 13.0881 18.0005H7.08814C6.53585 18.0005 6.08814 17.5528 6.08814 17.0005Z" fill="#15181D" style="fill:#15181D;fill-opacity:1;"/>
</svg>
