<svg viewBox="0 0 25 24" fill="none" xmlns="http://www.w3.org/2000/svg">
<path fill-rule="evenodd" clip-rule="evenodd" d="M9.01854 20.9995C9.01854 20.4472 9.46625 19.9995 10.0185 19.9995H14.0185C14.5708 19.9995 15.0185 20.4472 15.0185 20.9995C15.0185 21.5518 14.5708 21.9995 14.0185 21.9995H10.0185C9.46625 21.9995 9.01854 21.5518 9.01854 20.9995Z" fill="#15181D" style="fill:#15181D;fill-opacity:1;"/>
<path fill-rule="evenodd" clip-rule="evenodd" d="M7.06879 3.04976C8.38154 1.73701 10.162 0.999512 12.0185 0.999512C13.8751 0.999512 15.6555 1.73701 16.9683 3.04976C18.281 4.36252 19.0185 6.143 19.0185 7.99951C19.0185 10.9122 19.7505 12.8434 20.5179 14.0766L20.5298 14.0957C20.8871 14.6699 21.1695 15.1238 21.3599 15.4542C21.4554 15.6197 21.5423 15.7792 21.6067 15.921C21.6388 15.9917 21.6747 16.0785 21.7028 16.1728C21.7261 16.251 21.7705 16.4182 21.7539 16.6218C21.7427 16.7586 21.7148 16.9923 21.5806 17.2338C21.4465 17.4753 21.2628 17.6225 21.1525 17.7042C20.9022 17.8899 20.6148 17.9324 20.5189 17.9465L20.5144 17.9472C20.367 17.969 20.1998 17.9799 20.031 17.9864C19.6958 17.9995 19.2316 17.9995 18.6544 17.9995H5.38268C4.80546 17.9995 4.34132 17.9995 4.00606 17.9864C3.83731 17.9799 3.67003 17.969 3.52262 17.9472L3.51819 17.9465C3.42227 17.9324 3.13484 17.8899 2.88454 17.7042C2.7743 17.6225 2.59058 17.4753 2.45642 17.2338C2.32227 16.9923 2.29438 16.7586 2.28319 16.6218C2.26654 16.4182 2.31094 16.251 2.33425 16.1728C2.36234 16.0785 2.39828 15.9917 2.43041 15.921C2.49478 15.7792 2.58171 15.6197 2.67713 15.4542C2.86756 15.1238 3.15004 14.6698 3.50736 14.0956L3.51915 14.0766C4.28653 12.8434 5.01854 10.9122 5.01854 7.99951C5.01854 6.143 5.75603 4.36252 7.06879 3.04976Z" fill="#15181D" style="fill:#15181D;fill-opacity:1;"/>
</svg>
