<svg viewBox="0 0 24 24" fill="none" xmlns="http://www.w3.org/2000/svg">
  <path
    d="M5.21039 1H13.2364L21.2624 9.02598V20.7974C21.2624 22.5705 19.825 24.0078 18.052 24.0078H5.21039C3.43734 24.0078 2 22.5705 2 20.7974V4.21039C2 2.43734 3.43734 1 5.21039 1Z"
    fill="#FB733F" style="fill:#FB733F;fill-opacity:1;" />
  <path d="M13.2363 1L21.2623 9.02598H15.3766C14.1946 9.02598 13.2363 8.06775 13.2363 6.88572V1Z" fill="#FCAA8B"
    style="fill:#FCAA8B;fill-opacity:1;" />
  <path
    d="M9.63924 11.9677C9.64551 11.9698 9.65178 11.9719 9.65596 11.9729L6.88449 11.1066C6.85418 11.1003 6.82178 11.0972 6.78834 11.0972C6.53231 11.0972 6.32434 11.3051 6.32434 11.5612V18.1951C6.32434 18.4522 6.53231 18.6602 6.78834 18.6602C6.82178 18.6602 6.85314 18.656 6.88449 18.6508L9.72493 17.7635C9.912 17.6674 10.0395 17.472 10.0395 17.2483V12.5195C10.0384 12.2624 9.87124 12.0429 9.63924 11.9677ZM9.34244 17.0456L7.02139 17.6643V12.0921L9.34244 12.7107V17.0456ZM14.2166 11.0972C14.1831 11.0972 14.1518 11.1013 14.1204 11.1066L11.3824 11.9635C11.3866 11.9625 11.3897 11.9625 11.3918 11.9614C11.1462 12.0294 10.9654 12.254 10.9654 12.5205V17.2473C10.9654 17.472 11.0929 17.6664 11.28 17.7635L14.1183 18.6508C14.1486 18.6571 14.1821 18.6602 14.2155 18.6602C14.4715 18.6602 14.6795 18.4522 14.6795 18.1951V11.5612C14.6816 11.3051 14.4736 11.0972 14.2166 11.0972Z"
    fill="white" style="fill:white;fill-opacity:1;" />
</svg>
