<svg width="33" height="32" viewBox="0 0 33 32" fill="none" xmlns="http://www.w3.org/2000/svg">
<rect x="0.100586" y="-0.00012207" width="32" height="32" rx="6" fill="#F2F3FF"/>
<path fill-rule="evenodd" clip-rule="evenodd" d="M19.8506 24.1249H7.35059V22.8749H19.8506V24.1249Z" fill="#366EF4"/>
<path fill-rule="evenodd" clip-rule="evenodd" d="M10.2669 15.7915C10.1519 15.7915 10.0586 15.8848 10.0586 15.9998V22.6665C10.0586 22.7816 10.1519 22.8748 10.2669 22.8748H13.6003C13.7153 22.8748 13.8086 22.7816 13.8086 22.6665V15.9998C13.8086 15.8848 13.7153 15.7915 13.6003 15.7915H10.2669ZM8.80859 15.9998C8.80859 15.1944 9.46151 14.5415 10.2669 14.5415H13.6003C14.4057 14.5415 15.0586 15.1944 15.0586 15.9998V22.6665C15.0586 23.4719 14.4057 24.1248 13.6003 24.1248H10.2669C9.46151 24.1248 8.80859 23.4719 8.80859 22.6665V15.9998Z" fill="#366EF4"/>
<path fill-rule="evenodd" clip-rule="evenodd" d="M15.2669 8.2915C15.1519 8.2915 15.0586 8.38478 15.0586 8.49984V22.6665C15.0586 22.7816 15.1519 22.8748 15.2669 22.8748H18.6003V24.1248H15.2669C14.4615 24.1248 13.8086 23.4719 13.8086 22.6665V8.49984C13.8086 7.69442 14.4615 7.0415 15.2669 7.0415H21.9336C22.739 7.0415 23.3919 7.69442 23.3919 8.49984V15.5832H22.1419V8.49984C22.1419 8.38478 22.0487 8.2915 21.9336 8.2915H15.2669Z" fill="#366EF4"/>
<path fill-rule="evenodd" clip-rule="evenodd" d="M13.6006 20.3749H10.4756V19.1249H13.6006V20.3749Z" fill="#366EF4"/>
<path fill-rule="evenodd" clip-rule="evenodd" d="M21.1006 16.6249H16.1006V15.3749H21.1006V16.6249Z" fill="#366EF4"/>
<path fill-rule="evenodd" clip-rule="evenodd" d="M21.1006 12.8749H16.1006V11.6249H21.1006V12.8749Z" fill="#366EF4"/>
<path d="M21.4131 21.3124V24.1249H22.6631V21.3124H25.4756V20.0624H22.6631V17.2499H21.4131V20.0624H18.6006V21.3124H21.4131Z" fill="#366EF4"/>
</svg>
