<svg width="33" height="32" viewBox="0 0 33 32" fill="none" xmlns="http://www.w3.org/2000/svg">
<rect x="0.5" y="-0.00012207" width="32" height="32" rx="6" fill="#F2F3FF"/>
<path d="M23.0436 21.9374H20.8561V20.6874H23.0436V18.4999H24.2936V20.6874H26.4811V21.9374H24.2936V24.1249H23.0436V21.9374Z" fill="#366EF4"/>
<path d="M15.8271 7.68295L15.0393 8.69812C14.7178 8.57021 14.3671 8.49988 14 8.49988C12.4467 8.49988 11.1875 9.75908 11.1875 11.3124C11.1875 12.8463 12.4156 14.0935 13.9422 14.1243V15.3745C11.7252 15.3435 9.93753 13.5367 9.93753 11.3124C9.93753 9.06872 11.7564 7.24988 14 7.24988C14.6572 7.24988 15.2779 7.40591 15.8271 7.68295Z" fill="#366EF4"/>
<path d="M13.9422 16.2761V17.5261C11.7303 17.5345 9.63839 18.0296 7.75 18.9064V20.9998H10.0714V22.2498H7.125C6.77982 22.2498 6.5 21.97 6.5 21.6248V18.8857C6.5 18.4214 6.75567 17.9917 7.17616 17.7948C9.23647 16.8301 11.524 16.2846 13.9422 16.2761Z" fill="#366EF4"/>
<path d="M23.0624 12.3293C23.0624 14.573 21.2436 16.3918 18.9999 16.3918C16.7562 16.3918 14.9374 14.573 14.9374 12.3293C14.9374 10.0856 16.7562 8.2668 18.9999 8.2668C21.2436 8.2668 23.0624 10.0856 23.0624 12.3293ZM21.8124 12.3293C21.8124 10.776 20.5532 9.5168 18.9999 9.5168C17.4466 9.5168 16.1874 10.776 16.1874 12.3293C16.1874 13.8826 17.4466 15.1418 18.9999 15.1418C20.5532 15.1418 21.8124 13.8826 21.8124 12.3293Z" fill="#366EF4"/>
<path d="M21.5 19.2484C20.6875 19.1097 19.8526 19.0374 19 19.0374C16.7667 19.0374 14.6548 19.5335 12.75 20.4179V22.8749H21.5V24.1249H12.125C11.7798 24.1249 11.5 23.845 11.5 23.4999V20.3972C11.5 19.9329 11.7556 19.5032 12.1761 19.3063C14.2528 18.3339 16.5605 17.7874 19 17.7874C19.8507 17.7874 20.6855 17.8539 21.5 17.9817V19.2484Z" fill="#366EF4"/>
</svg>
