<svg xmlns="http://www.w3.org/2000/svg" fill="none" viewBox="0 0 24 24"><path fill="#000000" d="M19.852 19.125v2.625h1.5v-2.625h2.625v-1.5h-2.625V15h-1.5v2.625h-2.625v1.5h2.625ZM11.193 2.02a4.875 4.875 0 1 0-2.262 9.23v-1.5a3.375 3.375 0 1 1 1.316-6.512l.946-1.218ZM8.93 12.331c-2.901.01-5.646.665-8.119 1.823A1.434 1.434 0 0 0 0 15.463v3.287c0 .414.336.75.75.75h3.536V18H1.5v-2.512a17.742 17.742 0 0 1 7.43-1.657v-1.5Z"/><path fill="#000000" d="M19.875 7.595a4.875 4.875 0 1 1-9.75 0 4.875 4.875 0 0 1 9.75 0Zm-1.5 0a3.375 3.375 0 1 0-6.75 0 3.375 3.375 0 0 0 6.75 0ZM18 15.898a17.818 17.818 0 0 0-3-.253c-2.68 0-5.214.595-7.5 1.657v2.948H18v1.5H6.75A.75.75 0 0 1 6 21v-3.723c0-.557.307-1.073.811-1.31A19.337 19.337 0 0 1 18 14.378V15.9Z"/></svg>
