<svg width="33" height="32" viewBox="0 0 33 32" fill="none" xmlns="http://www.w3.org/2000/svg">
<rect x="0.899902" y="-0.00012207" width="32" height="32" rx="6" fill="#F2F3FF"/>
<path d="M12.1272 12.739C12.1272 10.3978 13.9587 8.49988 16.2181 8.49988C18.4774 8.49988 20.309 10.3978 20.309 12.739C20.309 15.0802 18.4774 16.9781 16.2181 16.9781C13.9587 16.9781 12.1272 15.0802 12.1272 12.739ZM18.9454 12.739C18.9454 11.1782 17.7243 9.91292 16.2181 9.91292C14.7119 9.91292 13.4908 11.1782 13.4908 12.739C13.4908 14.2998 14.7119 15.5651 16.2181 15.5651C17.7243 15.5651 18.9454 14.2998 18.9454 12.739Z" fill="#366EF4"/>
<path d="M16.2181 17.6847C17.1598 17.6847 18.0737 17.8083 18.9454 18.0408V19.5073C18.0812 19.2408 17.1658 19.0977 16.2181 19.0977C14.19 19.0977 12.3097 19.7531 10.7635 20.8706L10.7635 23.3368H18.9454V24.7499H10.7635C10.0104 24.7499 9.3999 24.1172 9.3999 23.3368V20.7598C9.3999 20.2299 9.68606 19.7445 10.1411 19.5026L10.9297 19.0977H10.9326C12.4984 18.1974 14.3005 17.6847 16.2181 17.6847Z" fill="#366EF4"/>
<path d="M21.6726 17.6847V20.5107H24.3999V21.9238H21.6726V24.7499H20.309V21.9238H17.5817V20.5107H20.309V17.6847H21.6726Z" fill="#366EF4"/>
</svg>
