<svg width="33" height="32" viewBox="0 0 33 32" fill="none" xmlns="http://www.w3.org/2000/svg">
<rect x="0.699707" y="-0.00012207" width="32" height="32" rx="6" fill="#F2F3FF"/>
<path d="M14.1997 7.24988C14.8569 7.24988 15.4776 7.40591 16.0268 7.68295L15.239 8.69812C14.9175 8.57021 14.5668 8.49988 14.1997 8.49988C12.6464 8.49988 11.3872 9.75908 11.3872 11.3124C11.3872 12.8463 12.6153 14.0935 14.1419 14.1243V15.3745C11.9249 15.3435 10.1372 13.5367 10.1372 11.3124C10.1372 9.06872 11.9561 7.24988 14.1997 7.24988Z" fill="#366EF4"/>
<path d="M7.37587 17.7948C9.43617 16.8301 11.7237 16.2846 14.1419 16.2761V17.5261C11.93 17.5345 9.8381 18.0296 7.94971 18.9064V20.9998H10.2711V22.2498H7.32471C6.97953 22.2498 6.69971 21.97 6.69971 21.6248V18.8857C6.69971 18.4214 6.95538 17.9917 7.37587 17.7948Z" fill="#366EF4"/>
<path d="M19.1996 16.3918C16.9559 16.3918 15.1371 14.573 15.1371 12.3293C15.1371 10.0856 16.9559 8.2668 19.1996 8.2668C21.4433 8.2668 23.2621 10.0856 23.2621 12.3293C23.2621 14.573 21.4433 16.3918 19.1996 16.3918ZM19.1996 15.1418C20.7529 15.1418 22.0121 13.8826 22.0121 12.3293C22.0121 10.776 20.7529 9.5168 19.1996 9.5168C17.6463 9.5168 16.3871 10.776 16.3871 12.3293C16.3871 13.8826 17.6463 15.1418 19.1996 15.1418Z" fill="#366EF4"/>
<path d="M26.6997 20.3972V23.4999C26.6997 23.845 26.4199 24.1249 26.0747 24.1249H12.3247C11.9795 24.1249 11.6997 23.845 11.6997 23.4999V20.3972C11.6997 19.9329 11.9553 19.5032 12.3758 19.3063C14.4525 18.3339 16.7602 17.7874 19.1997 17.7874C21.6392 17.7874 23.9468 18.3339 26.0235 19.3063C26.444 19.5032 26.6997 19.9329 26.6997 20.3972ZM25.4497 20.4179C23.5448 19.5335 21.433 19.0374 19.1997 19.0374C16.9664 19.0374 14.8545 19.5335 12.9497 20.4179V22.8749H25.4497V20.4179Z" fill="#366EF4"/>
</svg>
