<svg width="33" height="32" viewBox="0 0 33 32" fill="none" xmlns="http://www.w3.org/2000/svg">
<rect x="0.300781" y="-0.00012207" width="32" height="32" rx="6" fill="#F2F3FF"/>
<path fill-rule="evenodd" clip-rule="evenodd" d="M24.6344 24.1249H7.96777V22.8749H24.6344V24.1249Z" fill="#366EF4"/>
<path fill-rule="evenodd" clip-rule="evenodd" d="M10.4671 15.7915C10.3521 15.7915 10.2588 15.8848 10.2588 15.9998V22.6665C10.2588 22.7816 10.3521 22.8748 10.4671 22.8748H13.8005C13.9155 22.8748 14.0088 22.7816 14.0088 22.6665V15.9998C14.0088 15.8848 13.9155 15.7915 13.8005 15.7915H10.4671ZM9.00879 15.9998C9.00879 15.1944 9.66171 14.5415 10.4671 14.5415H13.8005C14.6059 14.5415 15.2588 15.1944 15.2588 15.9998V22.6665C15.2588 23.4719 14.6059 24.1248 13.8005 24.1248H10.4671C9.66171 24.1248 9.00879 23.4719 9.00879 22.6665V15.9998Z" fill="#366EF4"/>
<path fill-rule="evenodd" clip-rule="evenodd" d="M15.4671 8.2915C15.3521 8.2915 15.2588 8.38478 15.2588 8.49984V22.6665C15.2588 22.7816 15.3521 22.8748 15.4671 22.8748H22.1338C22.2488 22.8748 22.3421 22.7816 22.3421 22.6665V8.49984C22.3421 8.38478 22.2488 8.2915 22.1338 8.2915H15.4671ZM14.0088 8.49984C14.0088 7.69442 14.6617 7.0415 15.4671 7.0415H22.1338C22.9392 7.0415 23.5921 7.69442 23.5921 8.49984V22.6665C23.5921 23.4719 22.9392 24.1248 22.1338 24.1248H15.4671C14.6617 24.1248 14.0088 23.4719 14.0088 22.6665V8.49984Z" fill="#366EF4"/>
<path fill-rule="evenodd" clip-rule="evenodd" d="M21.3008 20.3749H16.3008V19.1249H21.3008V20.3749Z" fill="#366EF4"/>
<path fill-rule="evenodd" clip-rule="evenodd" d="M13.8008 20.3749H10.6758V19.1249H13.8008V20.3749Z" fill="#366EF4"/>
<path fill-rule="evenodd" clip-rule="evenodd" d="M21.3008 16.6249H16.3008V15.3749H21.3008V16.6249Z" fill="#366EF4"/>
<path fill-rule="evenodd" clip-rule="evenodd" d="M21.3008 12.8749H16.3008V11.6249H21.3008V12.8749Z" fill="#366EF4"/>
</svg>
