<svg xmlns="http://www.w3.org/2000/svg" fill="none" viewBox="0 0 24 24"><path fill="color(display-p3 .0824 .0941 .1137)" d="M9 6H6v3h3V6Z"/><path fill="color(display-p3 .0824 .0941 .1137)" d="M3.75 3a.75.75 0 0 0-.75.75v7.5c0 .414.336.75.75.75h7.5a.75.75 0 0 0 .75-.75v-7.5a.75.75 0 0 0-.75-.75h-7.5Zm.75 1.5h6v6h-6v-6ZM15.75 3a.75.75 0 0 0-.75.75v4.5c0 .414.336.75.75.75h4.5a.75.75 0 0 0 .75-.75v-4.5a.75.75 0 0 0-.75-.75h-4.5Zm.75 4.5v-3h3v3h-3ZM15 15.75a.75.75 0 0 1 .75-.75h4.5a.75.75 0 0 1 .75.75v4.5a.75.75 0 0 1-.75.75h-4.5a.75.75 0 0 1-.75-.75v-4.5Zm1.5 3.75h3v-3h-3v3ZM3.75 15a.75.75 0 0 0-.75.75v4.5c0 .414.336.75.75.75h4.5a.75.75 0 0 0 .75-.75v-4.5a.75.75 0 0 0-.75-.75h-4.5Zm.75 1.5h3v3h-3v-3ZM21 11.25h-6v1.5h6v-1.5ZM12.75 16.5V21h-1.5v-4.5h1.5ZM12.75 15v-1.5h-1.5V15h1.5Z"/></svg>