<svg xmlns="http://www.w3.org/2000/svg" fill="none" viewBox="0 0 24 24"><path fill="#000000" d="M16.5 7.5a4.5 4.5 0 1 1-9 0 4.5 4.5 0 0 1 9 0ZM5.357 18.533A6.467 6.467 0 0 1 11.756 13h.482a6.467 6.467 0 0 1 6.4 5.533A2.156 2.156 0 0 1 16.503 21H7.49a2.156 2.156 0 0 1-2.133-2.467ZM6 7.5c0-1.265.391-2.438 1.06-3.406a3.75 3.75 0 1 0 .313 7.226A5.976 5.976 0 0 1 6 7.5ZM3.872 18.317a7.962 7.962 0 0 1 3.971-5.79 5.387 5.387 0 0 0-1.422-.191h-.403a5.389 5.389 0 0 0-5.332 4.611 1.796 1.796 0 0 0 1.777 2.056h1.374a3.69 3.69 0 0 1 .035-.686Zm17.715.686h-1.43a3.69 3.69 0 0 0-.035-.686 7.962 7.962 0 0 0-3.953-5.78c.466-.131.956-.201 1.46-.201h.403a5.389 5.389 0 0 1 5.332 4.611 1.796 1.796 0 0 1-1.777 2.056ZM17.832 11.5c-.418 0-.82-.068-1.194-.194A5.976 5.976 0 0 0 18 7.5c0-1.26-.389-2.43-1.052-3.395a3.75 3.75 0 1 1 .885 7.395Z"/></svg>
