<svg xmlns="http://www.w3.org/2000/svg" fill="none" viewBox="0 0 24 24"><path fill="#000" d="M1.247 2.53a.75.75 0 0 1 .75-.75h20a.75.75 0 0 1 .75.75v8a.75.75 0 0 1-.75.75h-20a.75.75 0 0 1-.75-.75v-8Zm1.5.75v6.5h18.5v-6.5h-18.5Zm9.5 2.5h7.5v1.5h-7.5v-1.5Zm-3.5 2.5v-3.5h-1.5v3.5h1.5Zm-3-3.5v3.5h-1.5v-3.5h1.5Zm-3.75 7.47a.75.75 0 0 0-.75.75v8c0 .414.336.75.75.75h10.75v-1.5h-10v-6.5H15.25v-1.5H1.997Zm6.75 3v3.5h-1.5v-3.5h1.5Zm-3 3.5v-3.5h-1.5v3.5h1.5ZM20 16.5h3.75V18H20v3.75h-1.5V18h-3.75v-1.5h3.75v-3.75H20v3.75Z"/></svg>
