<svg xmlns="http://www.w3.org/2000/svg" fill="none" viewBox="0 0 24 24"><path fill="color(display-p3 .0824 .0941 .1137)" d="M12.403 1.185a2 2 0 0 0-.806 0c-.307.063-.582.217-.8.34l-.06.033-6.426 3.571c-.409.227-.613.34-.68.49a.5.5 0 0 0-.002.412c.068.15.271.265.679.494l7.3 4.107c.143.08.214.12.29.136a.502.502 0 0 0 .204 0c.076-.016.147-.056.29-.136l7.3-4.107c.408-.229.611-.343.679-.494a.5.5 0 0 0-.001-.411c-.068-.15-.273-.264-.68-.49l-6.427-3.572-.06-.034c-.218-.122-.493-.276-.8-.339ZM21.996 8.89c0-.448 0-.672-.095-.803a.5.5 0 0 0-.35-.204c-.16-.018-.356.092-.747.312l-7.396 4.16c-.149.084-.223.125-.277.184a.5.5 0 0 0-.106.182c-.025.076-.025.161-.025.331v8.176c0 .447 0 .67.094.801a.5.5 0 0 0 .348.205c.16.019.355-.09.745-.306l6.476-3.597.063-.034c.23-.128.522-.288.745-.53.193-.21.339-.457.428-.728.103-.313.102-.644.101-.908v-.072c0-1.963-.003-5.303-.004-7.169ZM9.814 21.928c.39.216.584.325.744.306a.5.5 0 0 0 .348-.205c.094-.13.094-.354.094-.801v-8.176c0-.17 0-.255-.025-.331a.5.5 0 0 0-.106-.181c-.054-.06-.128-.101-.277-.185l-7.396-4.16c-.391-.22-.587-.33-.748-.312a.5.5 0 0 0-.349.204c-.094.13-.095.355-.095.803C2.003 10.756 2 14.096 2 16.06v.072c-.001.264-.002.595.101.908a2 2 0 0 0 .428.728c.223.242.514.402.745.53l.063.034 6.477 3.597Z"/></svg>