<svg xmlns="http://www.w3.org/2000/svg" fill="none" viewBox="0 0 24 24"><path fill="#000" d="M11.266 1.25h1.451c1.036 0 1.955.572 2.46 1.4l-.64.39.639-.392c.245.4.429.924.384 1.506-.007.109.025.257.13.44.315.504 1.025.705 1.571.419a2.862 2.862 0 0 1 3.88 1.037l.002.004.682 1.175a2.777 2.777 0 0 1-1.028 3.861c-.518.308-.682.974-.387 1.461.135.223.227.309.322.355l.011.006.011.006c.502.266.864.671 1.106 1.045l.005.008.005.008c.542.889.47 1.94-.003 2.802l-.006.012-.721 1.209a2.88 2.88 0 0 1-2.455 1.408c-.484 0-1.02-.132-1.474-.41l-.007-.004-.006-.004c-.106-.068-.257-.112-.495-.112-.605 0-1.118.504-1.14 1.084-.008 1.582-1.306 2.786-2.866 2.786h-1.39c-1.57 0-2.87-1.204-2.876-2.79-.015-.574-.523-1.08-1.13-1.08-.255 0-.397.046-.484.104l-.012.008-.012.008a2.91 2.91 0 0 1-1.475.41c-1 0-1.951-.54-2.465-1.409V18l-.707-1.203c-.5-.857-.548-1.926-.022-2.802a2.872 2.872 0 0 1 1.107-1.073l.015-.008.015-.008c.096-.046.187-.13.335-.36.283-.488.114-1.151-.4-1.457a2.794 2.794 0 0 1-1.03-3.857l.69-1.187a2.874 2.874 0 0 1 3.887-1.032 1.214 1.214 0 0 0 1.56-.418c.107-.186.137-.334.13-.444v-.012c-.03-.555.129-1.077.4-1.498a2.945 2.945 0 0 1 2.423-1.39l.01-.001Zm.021 1.5c-.49.016-.936.281-1.18.68l-.005.01-.005.008c-.114.175-.178.389-.167.608.031.487-.12.933-.336 1.302l-.004.007-.005.007c-.727 1.187-2.318 1.629-3.56.958l-.007-.004-.007-.004a1.374 1.374 0 0 0-1.866.49l-.682 1.174-.002.004a1.294 1.294 0 0 0 .478 1.797l.011.006c1.216.714 1.66 2.301.93 3.53l-.007.012-.007.01c-.192.298-.463.666-.927.9-.23.129-.422.327-.507.484l-.009.016-.01.016c-.219.36-.225.843.028 1.28l.001.002.703 1.195c.243.412.703.672 1.173.672.22 0 .486-.066.683-.184.42-.274.885-.346 1.3-.346 1.414 0 2.601 1.15 2.63 2.555v.015c0 .709.577 1.3 1.376 1.3h1.39c.786 0 1.365-.589 1.365-1.3v-.023c.044-1.397 1.225-2.547 2.64-2.547.414 0 .873.075 1.296.343.2.12.458.187.687.187a1.38 1.38 0 0 0 1.164-.672l.001-.002.708-1.188c.254-.47.245-.931.037-1.28a1.559 1.559 0 0 0-.536-.521c-.469-.234-.742-.605-.932-.918-.746-1.232-.3-2.822.916-3.536l.007-.004.007-.004c.649-.362.856-1.16.479-1.79l-.006-.009-.682-1.176-.001-.001a1.362 1.362 0 0 0-1.852-.488l-.01.005-.01.006c-1.248.666-2.838.23-3.567-.96l-.004-.007-.004-.007c-.217-.371-.37-.82-.336-1.309v-.008a1.031 1.031 0 0 0-.167-.609l-.001-.001a1.402 1.402 0 0 0-1.179-.681h-1.43Zm.725 7.18c-1.21 0-2.152.943-2.152 2.08 0 1.134.94 2.07 2.152 2.07 1.202 0 2.122-.926 2.122-2.07 0-1.147-.923-2.08-2.122-2.08ZM8.36 12.01c0-2.003 1.652-3.58 3.652-3.58 2.01 0 3.622 1.587 3.622 3.58 0 1.996-1.615 3.57-3.622 3.57-1.996 0-3.652-1.564-3.652-3.57Z"/></svg>
