<svg viewBox="0 0 24 24" fill="none" xmlns="http://www.w3.org/2000/svg">
  <path
    d="M5.21039 1H13.2364L21.2624 9.02598V20.7974C21.2624 22.5705 19.825 24.0078 18.052 24.0078H5.21039C3.43734 24.0078 2 22.5705 2 20.7974V4.21039C2 2.43734 3.43734 1 5.21039 1Z"
    fill="#5290FD" style="fill:#5290FD;fill-opacity:1;" />
  <path d="M13.2365 1L21.2624 9.02598H15.3767C14.1947 9.02598 13.2365 8.06775 13.2365 6.88572V1Z" fill="#97BCFE"
    style="fill:#97BCFE;fill-opacity:1;" />
  <path
    d="M13.1846 12.3444L12.5602 16.2568C12.477 16.9644 12.3521 17.7136 12.2689 18.4628C12.2273 18.2547 12.1856 18.0466 12.144 17.8801C12.0192 17.339 11.9359 16.7979 11.811 16.2985L10.8954 12.3444H9.43858L8.5229 16.2568C8.35641 17.006 8.23154 17.7136 8.10668 18.4212L7.98181 17.4223C7.94019 17.0477 7.85694 16.6314 7.81532 16.2568L7.10774 12.3444H5.31799L6.85801 20.4191H8.93912L9.81318 16.4233C9.89643 15.9239 10.0213 15.4244 10.1045 14.9249C10.1878 15.3828 10.271 15.8406 10.3959 16.4233L11.3116 20.3774H13.3927L14.8495 12.386V12.3027H13.1846V12.3444Z"
    fill="white" style="fill:white;fill-opacity:1;" />
</svg>
