<svg viewBox="0 0 24 24" fill="none" xmlns="http://www.w3.org/2000/svg">
<rect width="24" height="24" rx="4" fill="#FFCE39" style="fill:#FFCE39;fill-opacity:1;"/>
<path fill-rule="evenodd" clip-rule="evenodd" d="M5.39648 5.39844C4.99137 5.39844 4.66296 5.72684 4.66296 6.13195V10.5331C4.66296 10.9382 4.99137 11.2666 5.39648 11.2666H18.5998C19.0049 11.2666 19.3333 10.9382 19.3333 10.5331V6.13195C19.3333 5.72684 19.0049 5.39844 18.5998 5.39844H5.39648ZM6.86347 7.04877C7.1673 7.04877 7.41361 7.29508 7.41361 7.59891V9.06594C7.41361 9.36977 7.1673 9.61608 6.86347 9.61608C6.55964 9.61608 6.31333 9.36977 6.31333 9.06594L6.31334 7.59891C6.31334 7.29508 6.55964 7.04877 6.86347 7.04877ZM9.61416 7.59891C9.61416 7.29508 9.36785 7.04877 9.06402 7.04877C8.76019 7.04877 8.51388 7.29508 8.51388 7.59891L8.51388 9.06594C8.51388 9.36977 8.76019 9.61608 9.06402 9.61608C9.36785 9.61608 9.61416 9.36977 9.61416 9.06594V7.59891ZM12.7316 7.78211C12.4278 7.78211 12.1815 8.02841 12.1815 8.33225C12.1815 8.63608 12.4278 8.88238 12.7316 8.88238H17.1327C17.4366 8.88238 17.6829 8.63608 17.6829 8.33225C17.6829 8.02841 17.4366 7.78211 17.1327 7.78211H12.7316ZM5.39648 12.7334C4.99137 12.7334 4.66296 13.0618 4.66296 13.4669V17.868C4.66296 18.2731 4.99137 18.6015 5.39648 18.6015H13.6282C12.9125 17.9569 12.4319 17.0562 12.3306 16.0438C12.2382 15.9454 12.1815 15.8129 12.1815 15.6672C12.1815 15.5242 12.2361 15.3939 12.3256 15.2961C12.4126 14.2873 12.8759 13.386 13.5744 12.7334H5.39648ZM6.86347 14.3838C7.1673 14.3838 7.41361 14.6301 7.41361 14.9339V16.4009C7.41361 16.7048 7.1673 16.9511 6.86347 16.9511C6.55964 16.9511 6.31333 16.7048 6.31333 16.4009L6.31334 14.9339C6.31334 14.6301 6.55964 14.3838 6.86347 14.3838ZM9.61416 14.9339C9.61416 14.6301 9.36785 14.3838 9.06402 14.3838C8.76019 14.3838 8.51388 14.6301 8.51388 14.9339L8.51388 16.4009C8.51388 16.7048 8.76019 16.9511 9.06402 16.9511C9.36785 16.9511 9.61416 16.7048 9.61416 16.4009V14.9339Z" fill="white" style="fill:white;fill-opacity:1;"/>
<path d="M18.6666 13.8203C18.6666 13.8137 18.6599 13.807 18.6533 13.8003C18.6266 13.7603 18.5933 13.7203 18.5599 13.687C18.5533 13.6803 18.5466 13.667 18.5399 13.6603C17.9999 13.0603 17.2066 12.687 16.3333 12.687C15.4933 12.687 14.7266 13.0337 14.1799 13.5937C13.6533 14.1337 13.3333 14.8737 13.3333 15.687C13.3333 16.247 13.4933 16.7803 13.7666 17.2337C13.9133 17.4803 14.0999 17.707 14.3133 17.8937C14.3266 17.9003 14.3333 17.907 14.3399 17.9137C14.3733 17.947 14.4066 17.9737 14.4466 18.007C14.4466 18.007 14.4466 18.007 14.4533 18.007C14.4599 18.0137 14.4666 18.0203 14.4733 18.0203C14.9733 18.4403 15.6199 18.687 16.3333 18.687C17.4266 18.687 18.3799 18.1003 18.8999 17.2337C19.0533 16.9737 19.1733 16.687 19.2466 16.387C19.3066 16.1603 19.3333 15.927 19.3333 15.687C19.3333 14.9803 19.0866 14.327 18.6666 13.8203ZM17.4533 16.1737H16.8333V16.8203C16.8333 17.0937 16.6066 17.3203 16.3333 17.3203C16.0599 17.3203 15.8333 17.0937 15.8333 16.8203V16.1737H15.2133C14.9399 16.1737 14.7133 15.947 14.7133 15.6737C14.7133 15.4003 14.9399 15.1737 15.2133 15.1737H15.8333V14.5803C15.8333 14.307 16.0599 14.0803 16.3333 14.0803C16.6066 14.0803 16.8333 14.307 16.8333 14.5803V15.1737H17.4533C17.7266 15.1737 17.9533 15.4003 17.9533 15.6737C17.9533 15.947 17.7333 16.1737 17.4533 16.1737Z" fill="white" style="fill:white;fill-opacity:1;"/>
</svg>
