<svg xmlns="http://www.w3.org/2000/svg" fill="none" viewBox="0 0 24 24"><path fill="#000000" d="M1.997 3a1 1 0 0 1 1-1h16a1 1 0 0 1 1 1v2.503a3.653 3.653 0 0 0-2.75 1.07l-.321.321-4.875 4.875-.05.05c-.27.27-.49.49-.685.74a5.104 5.104 0 0 0-.583.943c-.136.286-.235.582-.356.944l-.021.066-.476 1.425-.273.82a2.083 2.083 0 0 0 2.635 2.636l2.246-.748.066-.023c.362-.12.658-.219.944-.355.335-.16.651-.355.944-.583.249-.195.47-.416.74-.686l.049-.049 2.766-2.766V21a1 1 0 0 1-1 1h-16a1 1 0 0 1-1-1V3Zm4.25 6c0 .414.336.75.75.75h6.5a.75.75 0 0 0 0-1.5h-6.5a.75.75 0 0 0-.75.75Zm0 4c0 .414.336.75.75.75h2.5a.75.75 0 0 0 0-1.5h-2.5a.75.75 0 0 0-.75.75Zm0 4c0 .414.336.75.75.75h1.5a.75.75 0 0 0 0-1.5h-1.5a.75.75 0 0 0-.75.75Zm15.12-6.308a2.163 2.163 0 1 0-3.06-3.059l-.126.128a.524.524 0 0 0-.148.465c.02.107.055.265.12.452.13.375.376.867.839 1.33.462.463.955.709 1.33.839.188.065.345.1.452.12.171.03.342-.025.465-.148l.127-.127Zm-5.848 5.81c.175-.137.334-.296.651-.613l3.957-3.958c.096-.095.052-.26-.075-.305a4.332 4.332 0 0 1-1.845-1.249 4.317 4.317 0 0 1-.833-1.429c-.045-.127-.21-.171-.305-.075L13.11 12.83c-.317.317-.476.476-.612.651-.161.207-.3.43-.412.666-.095.2-.166.414-.308.84l-.184.55-.292.875-.273.82a.584.584 0 0 0 .738.738l.82-.273.875-.292.55-.184c.427-.142.64-.212.84-.308.236-.113.46-.25.666-.412Z"/></svg>
