<svg viewBox="0 0 24 24" fill="none" xmlns="http://www.w3.org/2000/svg">
<rect width="24" height="24" rx="4" fill="#7C8EB3" style="fill:#7C8EB3;fill-opacity:1;"/>
<path fill-rule="evenodd" clip-rule="evenodd" d="M11.4986 12.1697C11.8087 12.3494 12.1913 12.3494 12.5014 12.1697L15.0214 10.7092C15.33 10.5304 15.52 10.2007 15.52 9.844V6.91651C15.52 6.55983 15.33 6.23015 15.0214 6.05131L12.5014 4.59085C12.1913 4.41112 11.8087 4.41112 11.4986 4.59085L8.97858 6.05131C8.66998 6.23015 8.48 6.55983 8.48 6.91651V9.844C8.48 10.2007 8.66998 10.5304 8.97858 10.7092L11.4986 12.1697ZM19.5453 13.6915C18.9125 13.2675 18.1513 13.0203 17.3324 13.0203C15.1338 13.0203 13.3514 14.8026 13.3514 17.0012C13.3514 17.4186 13.4157 17.8209 13.5348 18.1989L13.1007 17.9488C12.7909 17.7703 12.6 17.4399 12.6 17.0824V14.1581C12.6 13.8006 12.7909 13.4702 13.1007 13.2917L15.6393 11.8288C15.9491 11.6503 16.3306 11.6507 16.64 11.83L19.1614 13.2913C19.3274 13.3875 19.4591 13.5273 19.5453 13.6915ZM7.85997 17.9666L5.83997 16.7959V14.4447L7.85997 13.274L9.87997 14.4447V16.7959L7.85997 17.9666ZM8.36139 19.4097L10.8814 17.9492C11.19 17.7704 11.38 17.4407 11.38 17.084V14.1565C11.38 13.7999 11.19 13.4702 10.8814 13.2913L8.36139 11.8309C8.05127 11.6512 7.66867 11.6512 7.35854 11.8309L4.83854 13.2913C4.52994 13.4702 4.33997 13.7999 4.33997 14.1565V17.084C4.33997 17.4407 4.52994 17.7704 4.83854 17.9492L7.35854 19.4097C7.66867 19.5894 8.05127 19.5894 8.36139 19.4097Z" fill="white" style="fill:white;fill-opacity:1;"/>
<path d="M20.0432 15.2769C20.0432 15.2702 20.0365 15.2636 20.0298 15.2569C20.0032 15.2169 19.9698 15.1769 19.9365 15.1436C19.9298 15.1369 19.9232 15.1236 19.9165 15.1169C19.3765 14.5169 18.5832 14.1436 17.7098 14.1436C16.8698 14.1436 16.1032 14.4902 15.5565 15.0502C15.0298 15.5902 14.7098 16.3302 14.7098 17.1436C14.7098 17.7036 14.8698 18.2369 15.1432 18.6902C15.2898 18.9369 15.4765 19.1636 15.6898 19.3502C15.7032 19.3569 15.7098 19.3636 15.7165 19.3702C15.7498 19.4036 15.7832 19.4302 15.8232 19.4636C15.8232 19.4636 15.8232 19.4636 15.8298 19.4636C15.8365 19.4702 15.8432 19.4769 15.8498 19.4769C16.3498 19.8969 16.9965 20.1436 17.7098 20.1436C18.8032 20.1436 19.7565 19.5569 20.2765 18.6902C20.4298 18.4302 20.5498 18.1436 20.6232 17.8436C20.6832 17.6169 20.7098 17.3836 20.7098 17.1436C20.7098 16.4369 20.4632 15.7836 20.0432 15.2769ZM18.8298 17.6302H18.2098V18.2769C18.2098 18.5502 17.9832 18.7769 17.7098 18.7769C17.4365 18.7769 17.2098 18.5502 17.2098 18.2769V17.6302H16.5898C16.3165 17.6302 16.0898 17.4036 16.0898 17.1302C16.0898 16.8569 16.3165 16.6302 16.5898 16.6302H17.2098V16.0369C17.2098 15.7636 17.4365 15.5369 17.7098 15.5369C17.9832 15.5369 18.2098 15.7636 18.2098 16.0369V16.6302H18.8298C19.1032 16.6302 19.3298 16.8569 19.3298 17.1302C19.3298 17.4036 19.1098 17.6302 18.8298 17.6302Z" fill="white" style="fill:white;fill-opacity:1;"/>
</svg>
