<svg xmlns="http://www.w3.org/2000/svg" fill="none" viewBox="0 0 24 24"><rect fill="url(#a)" rx="4" height="24" width="24"/><path fill="#fff" d="M16.289 7.099h-2.561A1.844 1.844 0 0 0 12 5.874c-.796 0-1.47.514-1.728 1.225h-2.56c-.675 0-1.226.551-1.226 1.225v8.577c0 .674.551 1.226 1.225 1.226h8.578c.673 0 1.225-.552 1.225-1.226V8.324c0-.674-.552-1.225-1.225-1.225Zm-4.289 0c.337 0 .613.276.613.612a.614.614 0 0 1-.613.613.614.614 0 0 1-.613-.612c0-.337.276-.613.613-.613Zm-1.225 8.577-2.45-2.45.863-.864 1.587 1.58 4.037-4.037.864.87-4.901 4.901Z" data-follow-fill="#fff"/><defs><linearGradient gradientUnits="userSpaceOnUse" y2="24" x2="24" y1="0" x1="0" id="a"><stop stop-color="color(display-p3 0 .3779 1)"/><stop stop-color="color(display-p3 0 .5713 .9849)" offset="1"/></linearGradient></defs></svg>