<svg viewBox="0 0 24 24" fill="none" xmlns="http://www.w3.org/2000/svg">
<rect width="24" height="24" rx="4" fill="#5B66FF" style="fill:#5B66FF;fill-opacity:1;"/>
<path fill-rule="evenodd" clip-rule="evenodd" d="M15.1667 5.33301H13.8334C12.5763 5.33301 11.9478 5.33301 11.5573 5.72353C11.4007 5.88007 11.3069 6.07484 11.2508 6.333C11.8184 6.33294 12.3387 6.33369 12.763 6.39074C13.237 6.45446 13.738 6.60439 14.15 7.01643C14.562 7.42846 14.712 7.92942 14.7757 8.4034C14.8336 8.83381 14.8335 9.36293 14.8334 9.94002L14.8334 9.99967V12.9369C15.285 12.7591 15.7769 12.6614 16.2917 12.6614C16.8383 12.6614 17.3592 12.7716 17.8334 12.9709V7.99967C17.8334 6.7426 17.8334 6.11406 17.4429 5.72353C17.0524 5.33301 16.4238 5.33301 15.1667 5.33301ZM13.213 19.1663C12.6492 18.4794 12.3107 17.6004 12.3107 16.6423C12.3107 15.3714 12.9062 14.2397 13.8334 13.5108V9.99967C13.8334 8.7426 13.8334 8.11406 13.4429 7.72353C13.0524 7.33301 12.4238 7.33301 11.1667 7.33301H8.50008C7.243 7.33301 6.61446 7.33301 6.22394 7.72353C5.83341 8.11406 5.83341 8.7426 5.83341 9.99967V18.1663H5.16675C4.89061 18.1663 4.66675 18.3902 4.66675 18.6663C4.66675 18.9425 4.89061 19.1663 5.16675 19.1663H13.213ZM7.83341 8.83301C7.55727 8.83301 7.33341 9.05687 7.33341 9.33301C7.33341 9.60915 7.55727 9.83301 7.83341 9.83301H11.8334C12.1096 9.83301 12.3334 9.60915 12.3334 9.33301C12.3334 9.05687 12.1096 8.83301 11.8334 8.83301H7.83341ZM7.83341 10.833C7.55727 10.833 7.33341 11.0569 7.33341 11.333C7.33341 11.6092 7.55727 11.833 7.83341 11.833H11.8334C12.1096 11.833 12.3334 11.6092 12.3334 11.333C12.3334 11.0569 12.1096 10.833 11.8334 10.833H7.83341ZM7.83341 12.833C7.55727 12.833 7.33341 13.0569 7.33341 13.333C7.33341 13.6092 7.55727 13.833 7.83341 13.833H11.8334C12.1096 13.833 12.3334 13.6092 12.3334 13.333C12.3334 13.0569 12.1096 12.833 11.8334 12.833H7.83341ZM10.3334 16.6663C10.3334 16.3902 10.1096 16.1663 9.83342 16.1663C9.55727 16.1663 9.33342 16.3902 9.33342 16.6663V18.1663H10.3334V16.6663Z" fill="white" style="fill:white;fill-opacity:1;"/>
<path d="M18.762 14.6685C18.762 14.6618 18.7554 14.6552 18.7487 14.6485C18.722 14.6085 18.6887 14.5685 18.6554 14.5352C18.6487 14.5285 18.642 14.5152 18.6354 14.5085C18.0954 13.9085 17.302 13.5352 16.4287 13.5352C15.5887 13.5352 14.822 13.8818 14.2754 14.4418C13.7487 14.9818 13.4287 15.7218 13.4287 16.5352C13.4287 17.0952 13.5887 17.6285 13.862 18.0818C14.0087 18.3285 14.1954 18.5552 14.4087 18.7418C14.422 18.7485 14.4287 18.7552 14.4354 18.7618C14.4687 18.7952 14.502 18.8218 14.542 18.8552C14.542 18.8552 14.542 18.8552 14.5487 18.8552C14.5554 18.8618 14.562 18.8685 14.5687 18.8685C15.0687 19.2885 15.7154 19.5352 16.4287 19.5352C17.522 19.5352 18.4754 18.9485 18.9954 18.0818C19.1487 17.8218 19.2687 17.5352 19.342 17.2352C19.402 17.0085 19.4287 16.7752 19.4287 16.5352C19.4287 15.8285 19.182 15.1752 18.762 14.6685ZM17.5487 17.0218H16.9287V17.6685C16.9287 17.9418 16.702 18.1685 16.4287 18.1685C16.1554 18.1685 15.9287 17.9418 15.9287 17.6685V17.0218H15.3087C15.0354 17.0218 14.8087 16.7952 14.8087 16.5218C14.8087 16.2485 15.0354 16.0218 15.3087 16.0218H15.9287V15.4285C15.9287 15.1552 16.1554 14.9285 16.4287 14.9285C16.702 14.9285 16.9287 15.1552 16.9287 15.4285V16.0218H17.5487C17.822 16.0218 18.0487 16.2485 18.0487 16.5218C18.0487 16.7952 17.8287 17.0218 17.5487 17.0218Z" fill="white" style="fill:white;fill-opacity:1;"/>
</svg>
